<?xml version="1.0" standalone="no"?>
<!DOCTYPE svg PUBLIC "-//W3C//DTD SVG 1.1//EN" "http://www.w3.org/Graphics/SVG/1.1/DTD/svg11.dtd" >
<svg xmlns="http://www.w3.org/2000/svg">
<metadata></metadata>
<defs>
<font id="qt_zaintextregular" horiz-adv-x="1014" >
<font-face units-per-em="2048" ascent="1638" descent="-410" />
<missing-glyph horiz-adv-x="473" />
<glyph horiz-adv-x="2048" />
<glyph horiz-adv-x="2048" />
<glyph unicode="&#xd;" horiz-adv-x="2048" />
<glyph unicode="&#x9;" horiz-adv-x="430" />
<glyph unicode=" "  horiz-adv-x="473" />
<glyph unicode="&#x09;" horiz-adv-x="473" />
<glyph unicode="&#xa0;" horiz-adv-x="473" />
<glyph unicode="!" horiz-adv-x="422" d="M57 89q29 26 132 134q52 -55 158 -150q-20 -21 -133 -134q-139 134 -157 150zM84 1304l228 98l-43 -1010l-118 -76z" />
<glyph unicode="&#x22;" horiz-adv-x="946" d="M273 853v438h132v-438h-132zM541 853v438h132v-438h-132z" />
<glyph unicode="#" d="M54 388v120h198l36 278h-179v120h197l55 385h122l-55 -385h230l55 385h122l-54 -385h178v-120h-195l-39 -278h179v-120h-196l-56 -388h-122l55 388h-230l-54 -388h-122l54 388h-179zM374 508h229l39 278h-230z" />
<glyph unicode="$" d="M77 148l127 111q39 -61 111.5 -98.5t150.5 -40.5v463q-78 21 -138 49.5t-112.5 71.5t-81 106t-28.5 143q0 148 105.5 247.5t254.5 112.5v120h88v-120q102 0 196.5 -38.5t157.5 -109.5l-120 -109q-87 114 -234 114v-454q51 -16 84 -27.5t77.5 -31t73 -38t59.5 -47 t48.5 -60t29 -74t11.5 -92.5q0 -158 -110.5 -258t-272.5 -110v-129h-88v129q-121 0 -223 41.5t-166 128.5zM270 951q0 -45 14 -78.5t44.5 -58t59.5 -39.5t78 -35v430q-90 -17 -143 -75.5t-53 -143.5zM554 120q94 11 156.5 72t62.5 147q0 48 -17.5 85t-51 62.5t-68 42 t-82.5 31.5v-440z" />
<glyph unicode="%" horiz-adv-x="1044" d="M50 -69l715 1351h175l-713 -1351h-177zM165 1144q18 18 127 142q41 -37 152 -165l-123 -144q-72 75 -156 167zM610 172q18 18 127 142q29 -27 152 -164l-123 -145q-72 75 -156 167z" />
<glyph unicode="&#x26;" horiz-adv-x="1316" d="M109 346q0 128 79 221.5t207 152.5q-74 76 -114.5 145t-40.5 154q0 138 96.5 217t237.5 79q90 0 161.5 -31.5t116.5 -97.5t45 -158q0 -58 -23.5 -109t-66 -91.5t-85.5 -69.5t-99 -58l274 -290l173 290h173l-248 -397l296 -303h-211l-174 186q-83 -105 -173 -156.5 t-213 -51.5q-171 0 -291 100.5t-120 267.5zM263 352q0 -102 74 -172.5t177 -70.5q90 0 157 46t142 133l-323 339q-49 -27 -83 -50t-70 -57t-55 -76.5t-19 -91.5zM393 1010q0 -46 24 -85.5t66 -84.5l46 -47q101 56 136 84q78 68 79 155q0 69 -47.5 110t-117.5 41 q-78 0 -132 -48t-54 -125z" />
<glyph unicode="'" horiz-adv-x="506" d="M188 853v438h131v-438h-131z" />
<glyph unicode="(" horiz-adv-x="492" d="M55 426q0 195 92 400t266 390h17q-239 -410 -239 -795q0 -360 230 -776h-15q-351 392 -351 781z" />
<glyph unicode=")" horiz-adv-x="495" d="M45 1216h17q174 -185 266 -390t92 -400q0 -389 -351 -781h-15q230 416 230 776q0 385 -239 795z" />
<glyph unicode="*" horiz-adv-x="809" d="M56 1000l35 106l259 -87v272h109v-272l259 87l35 -106l-257 -87l162 -217l-89 -69l-164 224l-159 -224l-91 69l158 217z" />
<glyph unicode="+" horiz-adv-x="1214" d="M131 492v120h415v416h122v-416h415v-120h-415v-415h-122v415h-415z" />
<glyph unicode="," horiz-adv-x="336" d="M24 11q41 122 154 111q45 -4 77 -36t31 -81q-2 -80 -66 -180.5t-139 -177.5q-12 -12 -4 4q3 6 18 31l11 16q10 16 25 42.5t30.5 57t26 65.5t10.5 63q0 22 -7 37q-5 17 -19 31q-27 34 -71.5 36t-76.5 -19z" />
<glyph unicode="-" horiz-adv-x="607" d="M80 372v131h447v-131h-447z" />
<glyph unicode="." horiz-adv-x="396" d="M31 105q13 14 83 77q12 11 40.5 37t39.5 37q5 -5 12 -11t18.5 -16t22.5 -20q35 -30 79 -70h1l25 -22q-12 -11 -111 -102q-41 -36 -49 -44q-92 72 -161 134z" />
<glyph unicode="/" horiz-adv-x="709" d="M15 -23l555 1378l103 -40l-555 -1376q-23 8 -57 21t-46 17z" />
<glyph unicode="0" horiz-adv-x="392" d="M43 395q26 51 114 190q53 -44 187 -144q-22 -35 -58.5 -96t-54.5 -91q-9 7 -26.5 20t-62 46.5t-99.5 74.5z" />
<glyph unicode="1" horiz-adv-x="597" d="M60 960q31 45 105 186l22 46q217 -455 262 -866q3 -35 3 -68q0 -165 -56 -278q-43 259 -132 519.5t-204 460.5z" />
<glyph unicode="2" horiz-adv-x="827" d="M71 946q58 110 120 231q128 -100 291 -100q141 0 261 83q-5 -83 -30 -147q-22 -64 -97 -97.5t-167 -33.5q-33 0 -110 12q84 -302 112 -556q6 -51 6 -100q0 -157 -49 -272q-42 256 -131.5 516.5t-205.5 463.5z" />
<glyph unicode="3" horiz-adv-x="922" d="M72 950q54 105 115 222q83 -94 180 -94q44 0 85.5 25.5t71.5 73.5q53 -103 147 -103q86 0 138 71q13 -41 7.5 -87t-21 -84t-49 -63.5t-76.5 -25.5q-65 -2 -144 66q-27 -44 -74 -67t-103 -16q76 -286 102 -525q23 -209 -43 -372q-42 256 -131.5 516.5t-204.5 462.5z" />
<glyph unicode="4" horiz-adv-x="807" d="M125 150q0 113 178 297v-1q73 72 73 100q0 10 -7 19.5t-13.5 14.5t-24.5 17q-2 2 -9 7t-10 8l-25 16q-42 29 -61 43.5t-46 40t-38 52t-11 57.5q0 56 80.5 134.5t180.5 141t193 103.5q-3 -22 -6 -41.5t-7 -42t-6 -38.5q-62 -22 -125.5 -54t-96.5 -53l-32 -21 q-56 -37 26 -94l218 -150h-1q27 -18 27 -39q0 -20 -32 -57q-1 -2 -2 -2.5t-2 -2.5l2 1l-38 -45q-156 -190 -179 -227l1 1q-20 -35 -20 -60q0 -52 121 -94t264 -42h27q-74 -100 -137 -187q-4 0 -7 -0.5t-9 -0.5q-25 0 -57 3q-197 13 -293 67.5t-96 128.5z" />
<glyph unicode="5" horiz-adv-x="907" d="M88 324q0 93 17 214q11 78 47 185.5t86.5 211.5t116 176t125.5 72q70 0 143.5 -96t122.5 -255t49 -322q0 -4 -0.5 -15t-0.5 -15q-17 -269 -126 -373q-67 -58 -150.5 -92t-157.5 -34q-58 0 -112 21t-89 56q-71 84 -71 266zM147 416q0 -60 38.5 -101.5t93 -57.5t114.5 -12 q73 5 135.5 30.5t99.5 59t58 67.5t21 62q0 36 -48.5 141t-122.5 202.5t-129 97.5q-57 0 -119.5 -92t-101.5 -207t-39 -190z" />
<glyph unicode="6" horiz-adv-x="870" d="M60 1151q112 -57 268 -57q146 0 275 57q-1 -1 -1 -18v-9q0 -5 -1.5 -63t-0.5 -112.5t5 -138t17 -160.5t33 -157.5t55.5 -152.5t82.5 -123q11 -12 11 -29t-14 -37l-120 -184q-130 218 -130 737q0 123 11 207q-187 -59 -296 -59q-77 0 -122.5 20t-47.5 49 q-4 38 -12.5 113.5t-12.5 116.5z" />
<glyph unicode="7" horiz-adv-x="899" d="M47 887l66 288q28 -31 55.5 -69.5t53 -89.5t45.5 -91.5t43.5 -105.5t37 -100t35.5 -107t28.5 -94t26.5 -93t21 -74q24 98 36 146.5t47 171t64 201.5t73 172.5t87 150.5l70 -293q-197 -232 -379 -921q-31 162 -111 372.5t-165.5 364t-133.5 171.5z" />
<glyph unicode="8" horiz-adv-x="902" d="M53 255q190 222 377 920q30 -162 111 -372.5t167 -364t134 -171.5l-66 -287q-32 34 -63.5 83t-56 94t-52.5 114.5t-44 112t-41 121t-34 108t-31 106.5t-24 85q-149 -626 -305 -831z" />
<glyph unicode="9" horiz-adv-x="886" d="M65 647q0 101 46.5 227t122 218.5t148.5 92.5q23 0 44 -12t39 -38.5t33.5 -55.5t31 -75.5t27 -85.5t25 -98.5t22.5 -101.5t22 -107q54 -258 179 -393q10 -11 10 -28q0 -19 -12 -37l-122 -185q-24 41 -54.5 168t-88.5 418q-48 -42 -55 -46q-93 -67 -215 -67 q-106 0 -160 55q-43 43 -43 151zM133 724q-2 -45 46.5 -71t111.5 -26q79 0 134.5 28t73.5 61q-69 257 -179 257q-37 0 -82 -47.5t-74 -106t-31 -95.5z" />
<glyph unicode=":" horiz-adv-x="382" d="M53 471q117 119 121 124q13 -12 144 -139l-123 -125q-17 17 -64.5 64t-77.5 76zM55 125q23 24 61.5 63t60.5 61l142 -136l-122 -126z" />
<glyph unicode=";" horiz-adv-x="487" d="M111 336q0 116 63.5 257t144.5 243q3 4 5 4t-3 -8q-115 -227 -115 -346q0 -58 35 -111q44 -61 122 -61q22 0 43 6q-32 -77 -80 -112t-94 -29h1q-49 8 -85.5 50t-36.5 107zM130 -36q37 33 105 106q88 -85 125 -119l-12 -13h1l-85 -85q-8 -7 -9 -10q-76 76 -125 121z" />
<glyph unicode="&#x3c;" horiz-adv-x="767" d="M61 957v13q0 51 73 110q175 117 271 163q-3 -5 -20 -30.5t-24.5 -37t-25 -36.5t-30 -41t-29.5 -37t-34.5 -38.5t-34.5 -31.5l-25 -21l25 -20q45 -45 86 -121t62 -138q-48 25 -118 75t-120 95q-56 38 -56 96zM377 957v13q0 48 73 110q132 87 272 163q-2 -3 -23.5 -36 t-29.5 -45t-30 -42.5t-37 -48.5t-36 -40.5t-41 -39.5l-26 -21l26 -20q76 -76 148 -259q-100 50 -240 170q-56 51 -56 96z" />
<glyph unicode="=" horiz-adv-x="1214" d="M131 350v120h952v-120h-952zM131 635v120h952v-120h-952z" />
<glyph unicode="&#x3e;" horiz-adv-x="767" d="M49 1243q148 -78 271 -163q73 -59 73 -110v-13q0 -45 -56 -96q-51 -46 -120 -95.5t-118 -74.5q69 177 147 259l25 20l-25 21q-17 14 -33.5 31t-34.5 39t-29.5 36.5t-30 41.5t-24.5 35.5t-25.5 38t-19.5 30.5zM367 1243q122 -60 271 -163q73 -62 73 -110v-13 q0 -58 -57 -96q-49 -45 -119 -95t-119 -75q68 178 147 259l26 20l-26 21q-77 66 -188 239q-2 4 -4 7z" />
<glyph unicode="?" horiz-adv-x="878" d="M49 1012q24 146 130.5 228.5t258.5 82.5q154 0 254.5 -86t100.5 -238q0 -39 -6.5 -73.5t-24 -68t-31 -55.5t-45 -55.5t-47 -48t-54.5 -51.5q-57 -54 -72 -89t-15 -113v-84h-154v115q0 41 5.5 71t10.5 49t26.5 45.5t33 39t50.5 51.5l36.5 36.5t40 41t29.5 37t30 46.5 t15 44.5t8 55.5q0 89 -52 144t-142 55t-149 -54t-72 -145zM312 99q0 44 32 76t77 32t77 -32t32 -76q0 -45 -33 -77.5t-76 -32.5t-76 32.5t-33 77.5z" />
<glyph unicode="@" horiz-adv-x="1458" d="M80 645q0 139 54 265t145.5 216.5t217.5 143.5t265 53q166 0 306.5 -70.5t225 -199.5t84.5 -288q0 -113 -42.5 -214.5t-107 -167.5t-138 -105t-139.5 -39q-49 0 -81.5 30.5t-34.5 89.5h-4q-51 -58 -102.5 -89t-125.5 -31q-114 0 -185.5 81t-71.5 202q0 95 31 187t85 165 t135 118t174 45q148 0 203 -150h3l33 115h119l-154 -515q-16 -53 -16 -92q0 -36 43 -36q58 0 117.5 56.5t99 150t39.5 191.5q0 137 -71.5 246t-184 165.5t-240.5 56.5q-154 0 -284 -79t-204 -212.5t-74 -288.5q0 -159 77.5 -293t206.5 -210t278 -76q136 0 260.5 60 t198.5 161h115q-87 -149 -241 -234.5t-333 -85.5q-188 0 -345 90.5t-247 246t-90 341.5zM478 534q0 -76 45 -125.5t113 -49.5q57 0 111 39.5t90.5 98t58.5 125.5t22 124q0 68 -44.5 119.5t-102.5 51.5q-81 0 -150.5 -63.5t-106 -151t-36.5 -168.5z" />
<glyph unicode="A" horiz-adv-x="1283" d="M11 0l568 1291h145l549 -1291h-179l-132 317h-645l-133 -317h-173zM377 459h527l-255 635h-4z" />
<glyph unicode="B" horiz-adv-x="1148" d="M160 0v1291h394q84 0 157.5 -17t136 -52.5t99 -99t36.5 -148.5q0 -110 -60 -185t-166 -107v-4q125 -11 208 -101t83 -216q0 -82 -30 -146t-78 -104t-115 -65.5t-135.5 -35.5t-144.5 -10h-385zM313 142h259q59 0 112.5 12.5t99.5 38t73 70.5t27 104q0 64 -25.5 111.5 t-70.5 73.5t-97.5 38t-114.5 12h-263v-460zM313 744h212q48 0 86.5 4.5t78.5 18t67.5 35.5t44.5 60.5t17 90.5q0 195 -278 195h-228v-404z" />
<glyph unicode="C" horiz-adv-x="1283" d="M85 645q0 141 49.5 266t135 215.5t208.5 143.5t264 53q138 0 257.5 -50t198.5 -152l-134 -97q-56 77 -141 117t-181 40q-140 0 -254 -75t-176 -197.5t-62 -263.5q0 -149 62 -271t175 -193.5t255 -71.5q231 0 373 181l115 -97q-168 -226 -488 -226q-137 0 -258.5 51.5 t-209 140.5t-138.5 215.5t-51 270.5z" />
<glyph unicode="D" horiz-adv-x="1351" d="M137 0v1291h496q56 0 114.5 -10.5t121 -34.5t119.5 -59t108 -88t88 -117.5t59 -151t22 -185.5q0 -115 -29 -213t-79 -166.5t-113 -121t-135 -83.5t-141 -46t-135 -15h-496zM290 142h291q114 0 207 29.5t164 89t110 157.5t39 227t-39 227t-110 157.5t-164 89t-207 29.5 h-291v-1006z" />
<glyph unicode="E" horiz-adv-x="1080" d="M160 0v1291h812v-143h-659v-404h614v-142h-614v-460h691v-142h-844z" />
<glyph unicode="F" d="M160 0v1291h800v-143h-647v-426h602v-143h-602v-579h-153z" />
<glyph unicode="G" horiz-adv-x="1418" d="M85 645q0 149 54.5 277t148 215.5t221 136.5t272.5 49q288 0 455 -170l-115 -120q-65 71 -158 109.5t-194 38.5q-223 0 -371 -151t-148 -385q0 -153 66.5 -275t189 -191.5t278.5 -69.5q78 0 164 20t156 55v395h-297v143h451v-635q-217 -120 -484 -120q-198 0 -355 84.5 t-245.5 239.5t-88.5 354z" />
<glyph unicode="H" horiz-adv-x="1316" d="M160 0v1291h153v-547h689v547h153v-1291h-153v602h-689v-602h-153z" />
<glyph unicode="I" horiz-adv-x="473" d="M160 0v1291h153v-1291h-153z" />
<glyph unicode="J" horiz-adv-x="878" d="M5 244l153 31q16 -78 65.5 -122t128.5 -44q213 0 213 277v905h153v-957q0 -55 -11.5 -105.5t-39 -99t-68.5 -84t-105 -57t-144 -21.5q-139 0 -230 71t-115 206z" />
<glyph unicode="K" horiz-adv-x="1148" d="M160 0v1291h153v-559h23l586 559h221l-638 -590l669 -701h-224l-614 656h-23v-656h-153z" />
<glyph unicode="L" horiz-adv-x="911" d="M160 0v1291h153v-1149h591v-142h-744z" />
<glyph unicode="M" horiz-adv-x="1654" d="M160 0v1291h228l438 -1012h3l441 1012h223v-1291h-154v1083h-3l-463 -1083h-92l-464 1083h-4v-1083h-153z" />
<glyph unicode="N" horiz-adv-x="1418" d="M160 0v1291h193l748 -1072h3v1072h154v-1291h-194l-747 1072h-4v-1072h-153z" />
<glyph unicode="O" horiz-adv-x="1520" d="M85 645q0 193 86.5 348t241 242.5t347.5 87.5t347.5 -87.5t241 -242.5t86.5 -348t-86.5 -348t-241 -242.5t-347.5 -87.5t-347.5 87.5t-241 242.5t-86.5 348zM250 645q0 -148 63.5 -270t181 -194t265.5 -72t265.5 72t181 194t63.5 270t-63.5 270t-181 194t-265.5 72 t-265.5 -72t-181 -194t-63.5 -270z" />
<glyph unicode="P" horiz-adv-x="1080" d="M160 0v1291h383q94 0 171.5 -18t142.5 -57t101.5 -110t36.5 -169q0 -81 -27 -145.5t-69 -103.5t-99.5 -64.5t-113 -35t-114.5 -9.5h-259v-579h-153zM313 722h259q119 0 189 54t70 159t-70 159t-189 54h-259v-426z" />
<glyph unicode="Q" horiz-adv-x="1520" d="M85 661q0 138 51 261t139 211t211.5 139t262.5 51q186 0 338 -87t238.5 -238.5t86.5 -336.5q0 -168 -86 -317t-227 -209v-4h399v-131h-749q-139 0 -262.5 51t-211.5 139t-139 210.5t-51 260.5zM250 661q0 -219 143.5 -369t355.5 -150t356 150t144 369t-142.5 369.5 t-357.5 150.5t-357 -150.5t-142 -369.5z" />
<glyph unicode="R" horiz-adv-x="1113" d="M160 0v1291h330q60 0 108 -3t103 -12t97 -24.5t82 -42.5t66 -63.5t42 -90t16 -120.5q0 -139 -85.5 -228t-236.5 -112l366 -595h-187l-351 579h-197v-579h-153zM313 722h137q34 0 52.5 0.5t52.5 1.5t54 4t50.5 7.5t49 13t42 19.5t37.5 27t27 36t19 46.5t6 57.5 q0 54 -18.5 93.5t-47.5 62t-72 36t-83 17.5t-90 4h-216v-426z" />
<glyph unicode="S" d="M69 146l131 108q40 -70 115 -107.5t161 -37.5q68 0 131 24.5t106.5 77.5t43.5 123q0 45 -13 78t-33.5 55.5t-64 44t-83.5 36t-113 38.5q-21 7 -31 10q-60 20 -104 39.5t-87 49.5t-69.5 65.5t-43 86.5t-16.5 114q0 90 36.5 162.5t98.5 117.5t140 68.5t164 23.5 q232 0 361 -151l-126 -109q-37 59 -99.5 88.5t-135.5 29.5q-71 0 -131.5 -21.5t-102 -72t-41.5 -123.5q0 -88 57.5 -137.5t213.5 -99.5q54 -17 85.5 -28t77.5 -31t73.5 -38.5t59.5 -48t49 -62t29 -77.5t12 -98q0 -93 -37.5 -166.5t-102 -118.5t-144.5 -68.5t-170 -23.5 q-122 0 -228.5 43.5t-168.5 135.5z" />
<glyph unicode="T" horiz-adv-x="1047" d="M20 1148v143h1006v-143h-426v-1148h-153v1148h-427z" />
<glyph unicode="U" horiz-adv-x="1283" d="M155 492v799h153v-777q0 -66 9.5 -122.5t34 -109.5t61.5 -90.5t95.5 -60t133.5 -22.5t133 22.5t95.5 60t61.5 90.5t33.5 109.5t9.5 122.5v777h154v-799q0 -87 -16.5 -162.5t-53 -143t-92 -115.5t-138.5 -76t-187 -28t-187 28t-138.5 76t-92 115.5t-53 143t-16.5 162.5z " />
<glyph unicode="V" horiz-adv-x="1113" d="M-16 1291h173l397 -1061h4l409 1061h163l-505 -1291h-147z" />
<glyph unicode="W" horiz-adv-x="1755" d="M11 1291h170l292 -1072h5l317 1072h171l316 -1072h3l299 1072h160l-379 -1291h-165l-320 1094h-3l-321 -1094h-168z" />
<glyph unicode="X" horiz-adv-x="1148" d="M-5 0l470 680l-434 611h197l348 -505l344 505h192l-434 -611l475 -680h-202l-382 572l-385 -572h-189z" />
<glyph unicode="Y" horiz-adv-x="1083" d="M-16 1291h195l362 -583l374 583h184l-481 -735v-556h-153v556z" />
<glyph unicode="Z" horiz-adv-x="1047" d="M53 0v137l745 1011h-734v143h920v-131l-745 -1018h754v-142h-940z" />
<glyph unicode="[" horiz-adv-x="472" d="M51 -284v1618h301v-109h-170v-1400h170v-109h-301z" />
<glyph unicode="\" horiz-adv-x="675" d="M5 1323l115 44l549 -1400l-115 -45z" />
<glyph unicode="]" horiz-adv-x="472" d="M120 -175h170v1400h-170v109h301v-1618h-301v109z" />
<glyph unicode="^" horiz-adv-x="1214" d="M146 501l407 790h108l407 -790h-134l-327 636l-327 -636h-134z" />
<glyph unicode="_" horiz-adv-x="911" d="M0 -137h911v-91h-911v91z" />
<glyph unicode="`" horiz-adv-x="438" d="M-45 1291h200l189 -263h-129z" />
<glyph unicode="a" horiz-adv-x="946" d="M85 231q0 59 19.5 105.5t50 77.5t77.5 53.5t91 34t103 18.5t101 8.5t96 1.5h55v26q0 92 -55 140t-157 48q-70 0 -137 -24t-115 -69l-90 93q64 65 153.5 98t185.5 33q187 0 272.5 -89t85.5 -272v-366q0 -73 12 -148h-137q-9 38 -9 127h-3q-45 -69 -116.5 -109t-164.5 -40 q-136 0 -227 67t-91 186zM239 246q0 -76 50.5 -111.5t136.5 -35.5q118 0 184 73t68 183v55h-142q-297 0 -297 -164z" />
<glyph unicode="b" horiz-adv-x="1113" d="M127 0v1378h143v-649h3q125 146 306 146q199 0 324 -126.5t125 -322.5q0 -190 -123.5 -319t-302.5 -129q-111 0 -199 48.5t-130 124.5h-3v-151h-143zM270 426q0 -136 83.5 -226.5t218.5 -90.5q136 0 219.5 90.5t83.5 226.5q0 137 -83.5 227.5t-219.5 90.5t-219 -90.5 t-83 -227.5z" />
<glyph unicode="c" horiz-adv-x="878" d="M85 426q0 196 123 322.5t319 126.5q203 0 328 -135l-113 -100q-85 104 -215 104q-138 0 -213 -89.5t-75 -228.5q0 -134 80 -225.5t208 -91.5q140 0 217 106l105 -100q-118 -137 -322 -137q-197 0 -319.5 125.5t-122.5 322.5z" />
<glyph unicode="d" horiz-adv-x="1113" d="M85 426q0 196 125 322.5t324 126.5q182 0 306 -146h4v649h142v-1378h-142v151h-4q-41 -76 -128.5 -124.5t-199.5 -48.5q-180 0 -303.5 129t-123.5 319zM239 426q0 -136 83.5 -226.5t218.5 -90.5q136 0 219.5 90.5t83.5 226.5q0 137 -83.5 227.5t-219.5 90.5t-219 -90.5 t-83 -227.5z" />
<glyph unicode="e" d="M85 426q0 198 124 323.5t314 125.5q183 0 293.5 -119t110.5 -328v-45h-688q8 -114 86.5 -194t192.5 -80q170 0 271 130l108 -84q-73 -94 -165 -135.5t-214 -41.5q-130 0 -230 60.5t-151.5 162t-51.5 225.5zM239 503h535q-4 110 -72 175.5t-184 65.5t-190.5 -66 t-88.5 -175z" />
<glyph unicode="f" horiz-adv-x="574" d="M22 732v121h185v192q0 168 70 261.5t233 93.5q71 0 109 -22l-19 -128q-51 18 -97 18q-36 0 -62.5 -8t-43 -26t-26.5 -37t-14.5 -52.5t-5.5 -59.5t-1 -71v-161h208v-121h-208v-732h-143v732h-185z" />
<glyph unicode="g" horiz-adv-x="1113" d="M85 426q0 208 124.5 328.5t329.5 120.5q92 0 176.5 -43t124.5 -124h4v145h142v-815q0 -231 -120 -353.5t-344 -122.5q-128 0 -229.5 38t-190.5 125l102 117q70 -75 146 -111.5t172 -36.5q322 0 322 344v110h-4q-48 -79 -129.5 -119t-171.5 -40q-200 0 -327 124t-127 313z M239 426q0 -128 88 -217t212 -89q141 0 223 90.5t82 219.5q0 138 -85 226t-220 88q-132 0 -216 -91t-84 -227z" />
<glyph unicode="h" d="M135 0v1378h142v-644h3q32 57 106.5 99t167.5 42q162 0 243 -93.5t81 -254.5v-527h-142v512q0 110 -48.5 171t-146.5 61q-133 0 -198.5 -87.5t-65.5 -240.5v-416h-142z" />
<glyph unicode="i" horiz-adv-x="438" d="M115 1186q0 43 30 74t74 31q43 0 73 -31t30 -74q0 -44 -29 -73.5t-74 -29.5t-74.5 29.5t-29.5 73.5zM148 0v853h142v-853h-142z" />
<glyph unicode="j" horiz-adv-x="438" d="M-62 -419l17 124q32 -11 69 -11q31 0 54 9.5t36 25t21 40t10.5 49t2.5 57.5v978h142v-1044q0 -30 -5.5 -60t-23 -65t-44.5 -61t-73.5 -43.5t-107.5 -17.5q-56 0 -98 19zM115 1186q0 43 30 74t74 31q43 0 73 -31t30 -74q0 -44 -29 -73.5t-74 -29.5t-74.5 29.5t-29.5 73.5z " />
<glyph unicode="k" horiz-adv-x="911" d="M135 0v1378h142v-900l389 375h202l-412 -388l454 -465h-210l-423 449v-449h-142z" />
<glyph unicode="l" horiz-adv-x="438" d="M148 0v1378h142v-1378h-142z" />
<glyph unicode="m" horiz-adv-x="1553" d="M127 853h136q0 -23 1.5 -69.5t1.5 -70.5h4q31 67 107.5 114.5t176.5 47.5q65 0 115 -16t80.5 -44.5t46 -50.5t28.5 -51q50 80 113.5 121t156.5 41q175 0 249.5 -91t74.5 -266v-518h-142v510q0 234 -208 234q-93 0 -157 -70t-64 -182v-492h-141v483q0 140 -38.5 200.5 t-126.5 60.5q-133 0 -198.5 -87.5t-65.5 -240.5v-416h-142v651q0 42 -4 109.5t-4 92.5z" />
<glyph unicode="n" d="M127 853h136q0 -23 1.5 -69.5t1.5 -70.5h4q31 67 107.5 114.5t176.5 47.5q162 0 243 -93.5t81 -254.5v-527h-142v512q0 110 -48.5 171t-146.5 61q-133 0 -198.5 -87.5t-65.5 -240.5v-416h-142v651q0 42 -4 109.5t-4 92.5z" />
<glyph unicode="o" horiz-adv-x="1083" d="M85 426q0 198 129 323.5t327 125.5q199 0 327.5 -125.5t128.5 -323.5t-128.5 -323t-327.5 -125q-198 0 -327 125t-129 323zM239 426q0 -136 83.5 -226.5t218.5 -90.5q136 0 219.5 90.5t83.5 226.5q0 137 -83.5 227.5t-219.5 90.5t-219 -90.5t-83 -227.5z" />
<glyph unicode="p" horiz-adv-x="1113" d="M127 -416v1269h143v-124h3q125 146 306 146q199 0 324 -126.5t125 -322.5q0 -190 -123.5 -319t-302.5 -129q-111 0 -199 48.5t-130 124.5h-3v-567h-143zM270 426q0 -136 83.5 -226.5t218.5 -90.5q136 0 219.5 90.5t83.5 226.5q0 137 -83.5 227.5t-219.5 90.5t-219 -90.5 t-83 -227.5z" />
<glyph unicode="q" horiz-adv-x="1113" d="M85 426q0 191 123.5 320t303.5 129q111 0 199 -49t129 -125h4v152h142v-1269h-142v540h-4q-125 -146 -306 -146q-200 0 -324.5 126t-124.5 322zM239 426q0 -136 83.5 -226.5t218.5 -90.5q136 0 219.5 90.5t83.5 226.5q0 137 -83.5 227.5t-219.5 90.5t-219 -90.5 t-83 -227.5z" />
<glyph unicode="r" horiz-adv-x="642" d="M127 853h136q0 -23 1.5 -69.5t1.5 -70.5h4q31 67 107.5 114.5t176.5 47.5q34 0 58 -9l-9 -144q-34 10 -76 10q-127 0 -188.5 -82.5t-61.5 -233.5v-416h-142v651q0 42 -4 109.5t-4 92.5z" />
<glyph unicode="s" horiz-adv-x="776" d="M40 137l113 87q47 -57 97.5 -86t121.5 -29q75 0 131.5 33.5t56.5 97.5q0 27 -11 48t-26 33.5t-43 24t-48 17t-55 13.5q-61 14 -95 23t-79 28.5t-68.5 43t-40.5 62.5t-17 90q0 79 47.5 138t118 86.5t152.5 27.5q96 0 172 -38.5t118 -116.5l-118 -78q-64 102 -181 102 q-65 0 -116 -31t-51 -88q0 -34 32 -59t74.5 -38.5t107.5 -26.5q63 -12 109 -28.5t87 -45t62.5 -74t21.5 -107.5q0 -70 -29 -123t-78.5 -84t-108.5 -46t-125 -15q-113 0 -192 36t-140 123z" />
<glyph unicode="t" horiz-adv-x="642" d="M22 732v121h185v243h143v-243h252v-121h-252v-426q0 -29 0.5 -45.5t3 -40.5t7.5 -37.5t14 -29.5t22.5 -24.5t34 -14t46.5 -5.5q71 0 125 30l6 -130q-72 -31 -166 -31q-60 0 -102.5 13.5t-68.5 36t-40.5 60t-19.5 78t-5 98.5v468h-185z" />
<glyph unicode="u" d="M135 327v526h142v-512q0 -110 49 -171t146 -61q133 0 198.5 88t65.5 241v415h142v-651q0 -42 4 -109.5t4 -92.5h-135q0 22 -1.5 69.5t-1.5 71.5h-4q-30 -68 -107 -115.5t-178 -47.5q-162 0 -243 93.5t-81 255.5z" />
<glyph unicode="v" horiz-adv-x="878" d="M18 853h166l266 -669h4l254 669h153l-338 -853h-156z" />
<glyph unicode="w" horiz-adv-x="1351" d="M26 853h156l195 -656h4l221 656h149l224 -656h4l193 656h153l-275 -853h-140l-242 656h-5l-214 -656h-146z" />
<glyph unicode="x" horiz-adv-x="911" d="M5 0l350 459l-306 394h186l226 -307l214 307h172l-293 -394l352 -459h-188l-269 368l-267 -368h-177z" />
<glyph unicode="y" horiz-adv-x="878" d="M18 853h166l265 -669h3l254 669h155l-412 -1048q-25 -62 -45.5 -100t-53 -74t-78.5 -52.5t-108 -16.5q-78 0 -128 22l18 124q38 -14 101 -14q65 0 98.5 34t59.5 106l59 161z" />
<glyph unicode="z" horiz-adv-x="809" d="M54 0v111l502 621h-479v121h665v-109l-502 -624h515v-120h-701z" />
<glyph unicode="{" horiz-adv-x="607" d="M61 470v109q61 0 108.5 58t47.5 149v320q0 104 60 166t132 62h127v-109h-98q-52 0 -71 -39.5t-19 -105.5v-320q0 -57 -18 -103t-45.5 -72t-50.5 -39.5t-43 -18.5v-4q19 -2 42.5 -14t51 -37t45.5 -73t18 -111v-319q0 -144 90 -144h98v-109h-127q-75 0 -133.5 61.5 t-58.5 166.5v319q0 93 -47.5 150t-108.5 57z" />
<glyph unicode="|" horiz-adv-x="405" d="M142 -33v1411h121v-1411h-121z" />
<glyph unicode="}" horiz-adv-x="607" d="M71 -175h98q90 0 90 144v319q0 63 18 111t45.5 73t51 37t42.5 14v4q-20 5 -43 18.5t-50.5 39.5t-45.5 72t-18 103v320q0 66 -19 105.5t-71 39.5h-98v109h127q72 0 132 -62t60 -166v-320q0 -91 47.5 -149t108.5 -58v-109q-61 0 -108.5 -57t-47.5 -150v-319 q0 -105 -58.5 -166.5t-133.5 -61.5h-127v109z" />
<glyph unicode="~" horiz-adv-x="1214" d="M188 514q26 38 43.5 59.5t47 48.5t63.5 40t74 13q30 0 65.5 -9.5t57 -18.5t63.5 -28q13 -6 48.5 -22.5t54 -24t48.5 -15t58 -7.5q54 0 90.5 35t64.5 93l60 -87q-23 -32 -35 -47.5t-36.5 -41.5t-45 -38.5t-50 -23t-62.5 -10.5q-68 0 -186 55q-11 5 -49 23t-55 24.5 t-47.5 14t-58.5 7.5q-95 0 -153 -128z" />
<glyph horiz-adv-x="1424" d="M77 115v521h180q62 0 93 -7q99 -22 139 -126q20 -57 20 -125q0 -112 -50 -180q-39 -57 -109 -74q-31 -9 -85 -9h-188zM146 176h112q90 0 127 37q53 51 53 167q0 148 -93 184q-28 11 -89 11h-110v-399zM571 115v521h378v-61h-308v-159h288v-62h-288v-178h320v-61h-390z M1027 115v521h69v-460h257v-61h-326z" />
<glyph unicode="&#xa1;" horiz-adv-x="579" d="M160 873q0 32 23.5 56t55.5 24q33 0 57 -24t24 -56t-24 -56t-56 -24t-56 24t-24 56zM194 -85v728l93 94v-427q0 -57 103 -238q-69 0 -196 -157z" />
<glyph unicode="&#xa2;" d="M122 426q0 181 105.5 304t277.5 140v125h88v-120q183 -8 298 -135l-113 -100q-76 92 -185 104v-635q115 9 188 106l105 -100q-107 -124 -293 -137v-120h-88v120q-174 22 -278.5 144t-104.5 304zM275 426q0 -117 63 -203.5t167 -111.5v629q-111 -21 -170.5 -107 t-59.5 -207z" />
<glyph unicode="&#xa3;" d="M104 0v142h197v460h-176v120h176v146q0 226 106.5 335.5t283.5 109.5q180 0 293 -113l-100 -108q-92 89 -197 89q-128 0 -180.5 -81.5t-52.5 -235.5v-142h295v-120h-295v-460h448v-142h-798z" />
<glyph unicode="&#xa4;" horiz-adv-x="911" d="M24 340l128 129q-91 105 -91 251q0 138 91 252l-128 125l50 51l130 -126q106 91 253 91q142 0 250 -91l127 126l52 -51l-129 -125q92 -116 92 -250q0 -139 -92 -253l129 -129l-52 -49l-127 127q-119 -91 -241 -91q-67 0 -139 23q-82 25 -123 68l-130 -127zM134 717 q0 -132 94 -226q95 -93 227 -93q133 0 228 94q95 95 95 227q0 85 -46 162q-43 76 -118 118q-77 41 -158 41q-135 0 -229 -94q-93 -93 -93 -229z" />
<glyph unicode="&#xa5;" d="M0 1291h182l324 -597l325 597h183l-348 -597h207v-109h-273l-17 -29v-130h290v-109h-290v-317h-153v317h-289v109h289v130l-16 29h-273v109h207z" />
<glyph unicode="&#xa6;" horiz-adv-x="365" d="M143 -279v661h74v-661h-74zM143 720v660h74v-660h-74z" />
<glyph unicode="&#xa7;" d="M102 -38l140 66q47 -159 230 -159q84 0 140.5 42t56.5 125q0 17 -3 32.5t-11.5 29t-15 24t-21.5 22t-23 18t-27.5 17t-26.5 14t-28.5 14t-25.5 12.5l-223 117q-62 32 -97.5 91t-35.5 131q0 166 184 255q-140 80 -140 215q0 93 52 162t129.5 101t168.5 32 q103 0 191.5 -42.5t127.5 -128.5l-136 -75q-21 57 -73 86t-115 29q-78 0 -135 -40t-57 -117q0 -89 81 -131l178 -90q39 -18 65 -31.5t62 -35.5t59.5 -44t46 -50.5t33.5 -63.5t11 -75q0 -155 -156 -243q125 -80 125 -224q0 -100 -55 -172t-137.5 -105t-179.5 -33 q-124 0 -220 56.5t-139 168.5zM273 581q0 -27 10.5 -50.5t23 -39t37.5 -32.5t40.5 -25t45.5 -22l163 -78q47 20 82.5 64.5t35.5 93.5q0 37 -15.5 67.5t-46 54.5t-54 38t-61.5 33l-106 53q-29 -12 -44 -19t-40 -21.5t-38 -29t-23 -37.5t-10 -50z" />
<glyph unicode="&#xa8;" horiz-adv-x="438" d="M-61 1148q0 40 29.5 69.5t69.5 29.5q41 0 70 -29t29 -70t-29 -69.5t-70 -28.5t-70 29t-29 69zM301 1148q0 41 28.5 70t70.5 29q40 0 69 -29t29 -70q0 -40 -29 -69t-69 -29q-42 0 -70.5 28.5t-28.5 69.5z" />
<glyph unicode="&#xa9;" horiz-adv-x="1458" d="M51 645q0 189 92 345.5t247.5 244.5t338.5 88q182 0 337.5 -88t248 -244.5t92.5 -345.5t-92.5 -345.5t-248 -244.5t-337.5 -88q-110 0 -212.5 33t-186.5 95t-147 144.5t-97.5 187t-34.5 218.5zM172 645q0 -121 43.5 -228.5t118 -184.5t177.5 -121.5t218 -44.5t218 44.5 t177.5 121.5t118.5 184.5t44 228.5t-44 229t-118.5 185t-177.5 121.5t-218 44.5q-154 0 -282 -76t-201.5 -209t-73.5 -295zM352 645q0 184 107.5 299t291.5 115q133 0 227 -72t114 -203h-111q-16 77 -78 126.5t-150 49.5q-132 0 -206.5 -88t-74.5 -227q0 -130 79.5 -223.5 t205.5 -93.5q88 0 149.5 52.5t74.5 133.5h113q-28 -130 -120 -207t-217 -77q-182 0 -293.5 117.5t-111.5 297.5z" />
<glyph unicode="&#xaa;" horiz-adv-x="570" d="M34 829q0 123 328 276v61q0 84 -69 84q-70 0 -117 -65q-40 -59 -44 -132h-41v140q136 89 256 89q104 0 104 -82v-387q0 -33 22 -33q29 0 86 51v-34q-91 -89 -146 -89q-51 0 -51 61v85q-136 -143 -218 -143q-47 0 -79 35q-31 37 -31 83zM124 867q0 -80 81 -80q84 0 129 96 q33 74 34 170q-87 -18 -154 -60q-90 -54 -90 -126z" />
<glyph unicode="&#xab;" horiz-adv-x="760" d="M62 471l303 350h77l-201 -350l201 -356h-79zM330 471l303 350h77l-201 -350l207 -356h-83z" />
<glyph unicode="&#xac;" horiz-adv-x="1215" d="M126 851v96h962v-511h-97v415h-865z" />
<glyph unicode="&#xad;" horiz-adv-x="1028" d="M32 824v72h952v-72h-952z" />
<glyph unicode="&#xae;" horiz-adv-x="1458" d="M51 645q0 189 92 345.5t247.5 244.5t338.5 88q182 0 337.5 -88t248 -244.5t92.5 -345.5t-92.5 -345.5t-248 -244.5t-337.5 -88q-110 0 -212.5 33t-186.5 95t-147 144.5t-97.5 187t-34.5 218.5zM172 645q0 -121 43.5 -228.5t118 -184.5t177.5 -121.5t218 -44.5t218 44.5 t177.5 121.5t118.5 184.5t44 228.5t-44 229t-118.5 185t-177.5 121.5t-218 44.5q-154 0 -282 -76t-201.5 -209t-73.5 -295zM470 250v792h299q278 0 278 -225q0 -102 -57 -154.5t-153 -62.5l227 -350h-129l-215 341h-129v-341h-121zM591 689h124q40 0 64 1.5t55.5 8.5 t49 20.5t30 39.5t12.5 63q0 39 -15 65t-43.5 37.5t-55.5 15.5t-63 4h-158v-255z" />
<glyph unicode="&#xaf;" horiz-adv-x="608" d="M73 1154v96h464v-96h-464z" />
<glyph unicode="&#xb0;" horiz-adv-x="684" d="M92 1014q0 113 79 192t192 79t192 -79q80 -80 80 -192t-81 -193q-79 -79 -191 -79q-113 0 -192 79t-79 193zM149 1014q0 -91 62 -152q63 -63 152 -63t151 63q64 62 64 152q0 89 -63 152q-62 62 -152 62q-89 0 -152 -63q-62 -62 -62 -151z" />
<glyph unicode="&#xb1;" horiz-adv-x="1214" d="M131 77v120h952v-120h-952zM131 602v120h415v306h122v-306h415v-120h-415v-307h-122v307h-415z" />
<glyph unicode="&#xb2;" horiz-adv-x="645" d="M58 692v32q150 167 213 247q143 187 143 281q0 83 -79 83q-117 0 -168 -198h-43v156q146 78 269 78q154 0 154 -134q0 -62 -53 -127q-25 -31 -101 -101l-226 -208h279q75 0 92 79h32l-43 -212h-29q-2 24 -17 24h-423z" />
<glyph unicode="&#xb3;" horiz-adv-x="645" d="M95 706v203h44q6 -77 49 -133q49 -65 121 -65q62 0 98 40.5t36 105.5q0 172 -237 178v33q76 12 131 58q63 52 63 124q0 81 -78 81q-68 0 -111 -67q-39 -58 -42 -130h-44v157q160 80 259 80q136 0 136 -108q0 -75 -87 -132q-40 -27 -151 -71q135 0 183 -12 q102 -27 102 -124q0 -109 -101 -183q-91 -67 -203 -67q-82 0 -168 32z" />
<glyph unicode="&#xb4;" horiz-adv-x="438" d="M93 1028l189 263h201l-260 -263h-130z" />
<glyph unicode="&#xb5;" d="M135 327v526h142v-512q0 -110 49 -171t146 -61q133 0 198.5 88t65.5 241v415h142v-651q0 -42 4 -109.5t4 -92.5h-135q0 22 -1.5 69.5t-1.5 71.5h-4q-30 -68 -107 -115.5t-178 -47.5q-103 0 -182 46v-440h-142v743z" />
<glyph unicode="&#xb6;" horiz-adv-x="797" d="M-6 918q0 107 60 194q65 93 165 118q92 23 243 23h338v-32q-86 -5 -105 -36q-15 -24 -15 -120v-1357h-52v1497h-166v-1497h-53v900q-415 -9 -415 310z" />
<glyph unicode="&#xb7;" horiz-adv-x="360" d="M76 684q0 45 30 75q29 32 75 32t77 -31q32 -30 32 -76t-32 -76q-30 -31 -76 -31q-44 0 -75 31t-31 76z" />
<glyph unicode="&#xb8;" horiz-adv-x="608" d="M193 -136q73 -26 114 -26q77 0 77 64q0 70 -89 70h-48v163h48v-120q32 2 33 2q155 0 155 -98q0 -58 -53 -94q-45 -32 -109 -32q-50 0 -128 22v49z" />
<glyph unicode="&#xb9;" horiz-adv-x="645" d="M150 1242v31l275 98v-27q-30 -6 -30 -45v-524q0 -61 62 -61h33v-32h-309v32h27q69 0 69 61v416q0 68 -48 68q-28 0 -79 -17z" />
<glyph unicode="&#xba;" horiz-adv-x="588" d="M28 962q0 124 84 218q87 99 209 99q115 0 181 -70q66 -71 66 -186q0 -123 -86 -218q-85 -97 -210 -97q-112 0 -178 71q-66 72 -66 183zM108 1035q0 -100 59 -183q66 -93 161 -93q77 0 121 64q39 59 39 137q0 98 -57 181q-64 93 -158 93q-79 0 -125 -61q-40 -53 -40 -138z " />
<glyph unicode="&#xbb;" horiz-adv-x="760" d="M45 115l206 356l-201 350h77l303 -350l-303 -356h-82zM318 115l201 356l-201 350h77l303 -350l-301 -356h-79z" />
<glyph unicode="&#xbc;" horiz-adv-x="1557" d="M156 1242v31l275 99v-28q-30 -6 -30 -45v-524q0 -61 63 -61h33v-32h-310v32h27q69 0 69 61v416q0 68 -48 68q-26 0 -79 -17zM323 86l826 1286h77l-825 -1286h-78zM959 293v32l203 236q80 101 172 228h46v-436h101v-60h-101v-93q0 -67 59 -67h21v-32h-295v32h27 q70 0 70 67v93h-303zM1033 353h229v246q-96 -84 -229 -246z" />
<glyph unicode="&#xbd;" horiz-adv-x="1557" d="M156 1242v31l275 99v-28q-30 -6 -30 -45v-523q0 -62 63 -62h33v-32h-310v32h27q69 0 69 62v415q0 68 -48 68q-26 0 -79 -17zM323 84l826 1288h77l-825 -1288h-78zM968 109v32q155 173 213 245q144 186 144 282q0 84 -80 84q-114 0 -167 -198h-44v160q150 75 271 75 q154 0 154 -136q0 -68 -72 -149q-28 -31 -125 -117q-95 -84 -184 -170h278q78 0 93 79h31l-43 -212h-29q-1 25 -15 25h-425z" />
<glyph unicode="&#xbe;" horiz-adv-x="1557" d="M101 706v203h44q8 -77 49 -133q49 -65 121 -65q63 0 98.5 40.5t35.5 105.5q0 172 -237 178v33q75 12 132 58q62 53 62 124q0 81 -78 81q-66 0 -111 -67q-39 -58 -42 -130h-43v157q158 80 258 80q136 0 136 -108q0 -115 -238 -203q136 0 183 -12q102 -28 102 -124 q0 -109 -100 -183q-92 -67 -204 -67q-84 0 -168 32zM344 86l825 1286h77l-822 -1286h-80zM959 293v32l195 225q105 121 180 239h46v-436h102v-60h-102v-93q0 -67 59 -67h21v-32h-291v32h24q69 0 69 67v93h-303zM1033 353h229v246q-97 -85 -229 -246z" />
<glyph unicode="&#xbf;" horiz-adv-x="816" d="M-9 -94q0 84 61 169q35 47 125 134q109 105 150 171q55 93 57 216h89q-1 -133 -39 -232q-33 -85 -122 -202q-127 -166 -127 -253q0 -69 43.5 -111t115.5 -42q130 0 213 116q76 103 80 237h59v-269q-243 -135 -449 -135q-105 0 -176 46q-80 53 -80 155zM324 789 q0 44 30 74q31 31 74 31q46 0 77.5 -30t31.5 -75t-31 -76t-76 -31t-76 31q-30 30 -30 76z" />
<glyph unicode="&#xc0;" horiz-adv-x="1283" d="M11 0l568 1291h145l549 -1291h-179l-132 317h-645l-133 -317h-173zM377 459h527l-255 635h-4zM377 1644h201l189 -263h-129z" />
<glyph unicode="&#xd7;" horiz-adv-x="1214" d="M167 198l353 355l-353 349l90 89l350 -351l352 351l88 -85l-355 -353l355 -351l-88 -89l-352 353l-352 -353z" />
<glyph unicode="&#xe0;" horiz-adv-x="946" d="M85 231q0 59 19.5 105.5t50 77.5t77.5 53.5t91 34t103 18.5t101 8.5t96 1.5h55v26q0 92 -55 140t-157 48q-70 0 -137 -24t-115 -69l-90 93q64 65 153.5 98t185.5 33q187 0 272.5 -89t85.5 -272v-366q0 -73 12 -148h-137q-9 38 -9 127h-3q-45 -69 -116.5 -109t-164.5 -40 q-136 0 -227 67t-91 186zM210 1320h200l190 -263h-130zM239 246q0 -76 50.5 -111.5t136.5 -35.5q118 0 184 73t68 183v55h-142q-297 0 -297 -164z" />
<glyph unicode="&#xe2;" horiz-adv-x="946" d="M85 231q0 59 19.5 105.5t50 77.5t77.5 53.5t91 34t103 18.5t101 8.5t96 1.5h55v26q0 92 -55 140t-157 48q-70 0 -137 -24t-115 -69l-90 93q64 65 153.5 98t185.5 33q187 0 272.5 -89t85.5 -272v-366q0 -73 12 -148h-137q-9 38 -9 127h-3q-45 -69 -116.5 -109t-164.5 -40 q-136 0 -227 67t-91 186zM239 246q0 -76 50.5 -111.5t136.5 -35.5q118 0 184 73t68 183v55h-142q-297 0 -297 -164zM348 1057l190 263h200l-260 -263h-130z" />
<glyph unicode="&#xe7;" horiz-adv-x="878" d="M85 426q0 196 123 322.5t319 126.5q203 0 328 -135l-113 -100q-85 104 -215 104q-138 0 -213 -89.5t-75 -228.5q0 -134 80 -225.5t208 -91.5q140 0 217 106l105 -100q-118 -137 -322 -137q-197 0 -319.5 125.5t-122.5 322.5zM306 -357l31 67q64 -29 131 -29 q44 0 77.5 17.5t33.5 57.5q0 35 -28.5 52t-65.5 17q-32 0 -71 -15l-37 35l113 155h82l-82 -117q5 1 16 3t23 3.5t25 1.5q55 0 100.5 -33t45.5 -93q0 -42 -19 -74t-51 -50t-68 -27t-75 -9q-101 0 -181 38z" />
<glyph unicode="&#xe8;" d="M85 426q0 198 124 323.5t314 125.5q183 0 293.5 -119t110.5 -328v-45h-688q8 -114 86.5 -194t192.5 -80q170 0 271 130l108 -84q-73 -94 -165 -135.5t-214 -41.5q-130 0 -230 60.5t-151.5 162t-51.5 225.5zM239 503h535q-4 110 -72 175.5t-184 65.5t-190.5 -66 t-88.5 -175zM381 1057l189 263h201l-261 -263h-129z" />
<glyph unicode="&#xe9;" d="M85 426q0 198 124 323.5t314 125.5q183 0 293.5 -119t110.5 -328v-45h-688q8 -114 86.5 -194t192.5 -80q170 0 271 130l108 -84q-73 -94 -165 -135.5t-214 -41.5q-130 0 -230 60.5t-151.5 162t-51.5 225.5zM239 503h535q-4 110 -72 175.5t-184 65.5t-190.5 -66 t-88.5 -175zM242 1320h201l190 -263h-130z" />
<glyph unicode="&#xea;" d="M85 426q0 198 124 323.5t314 125.5q183 0 293.5 -119t110.5 -328v-45h-688q8 -114 86.5 -194t192.5 -80q170 0 271 130l108 -84q-73 -94 -165 -135.5t-214 -41.5q-130 0 -230 60.5t-151.5 162t-51.5 225.5zM221 1057l202 263h166l204 -263h-148l-144 186l-142 -186h-138z M239 503h535q-4 110 -72 175.5t-184 65.5t-190.5 -66t-88.5 -175z" />
<glyph unicode="&#xeb;" d="M85 426q0 198 124 323.5t314 125.5q183 0 293.5 -119t110.5 -328v-45h-688q8 -114 86.5 -194t192.5 -80q170 0 271 130l108 -84q-73 -94 -165 -135.5t-214 -41.5q-130 0 -230 60.5t-151.5 162t-51.5 225.5zM228 1177q0 40 29 69.5t70 29.5q40 0 69 -29.5t29 -69.5 q0 -41 -28.5 -69.5t-69.5 -28.5q-42 0 -70.5 28.5t-28.5 69.5zM239 503h535q-4 110 -72 175.5t-184 65.5t-190.5 -66t-88.5 -175zM589 1177q0 40 29 69.5t69 29.5q41 0 70 -29.5t29 -69.5q0 -41 -29 -69.5t-70 -28.5t-69.5 28.5t-28.5 69.5z" />
<glyph unicode="&#xee;" horiz-adv-x="438" d="M-68 1057l203 263h166l204 -263h-148l-143 186l-143 -186h-139zM148 0v853h142v-853h-142z" />
<glyph unicode="&#xef;" horiz-adv-x="438" d="M-61 1177q0 40 29.5 69.5t69.5 29.5q41 0 70 -29.5t29 -69.5q0 -41 -29 -69.5t-70 -28.5t-70 29t-29 69zM148 0v853h142v-853h-142zM301 1177q0 40 29 69.5t70 29.5q40 0 69 -29.5t29 -69.5q0 -41 -29 -69.5t-69 -28.5q-42 0 -70.5 28.5t-28.5 69.5z" />
<glyph unicode="&#xf4;" horiz-adv-x="1083" d="M85 426q0 198 129 323.5t327 125.5q199 0 327.5 -125.5t128.5 -323.5t-128.5 -323t-327.5 -125q-198 0 -327 125t-129 323zM239 426q0 -136 83.5 -226.5t218.5 -90.5q136 0 219.5 90.5t83.5 226.5q0 137 -83.5 227.5t-219.5 90.5t-219 -90.5t-83 -227.5zM255 1057 l202 263h166l205 -263h-148l-144 186l-143 -186h-138z" />
<glyph unicode="&#xf7;" horiz-adv-x="1096" d="M77 322v171h953v-171h-953zM405 712l121 125l143 -140l-123 -125zM419 128l121 124l144 -140l-123 -124z" />
<glyph unicode="&#xf9;" d="M135 327v526h142v-512q0 -110 49 -171t146 -61q133 0 198.5 88t65.5 241v415h142v-651q0 -42 4 -109.5t4 -92.5h-135q0 22 -1.5 69.5t-1.5 71.5h-4q-30 -68 -107 -115.5t-178 -47.5q-162 0 -243 93.5t-81 255.5zM381 1057l189 263h201l-261 -263h-129z" />
<glyph unicode="&#xfb;" d="M135 327v526h142v-512q0 -110 49 -171t146 -61q133 0 198.5 88t65.5 241v415h142v-651q0 -42 4 -109.5t4 -92.5h-135q0 22 -1.5 69.5t-1.5 71.5h-4q-30 -68 -107 -115.5t-178 -47.5q-162 0 -243 93.5t-81 255.5zM242 1320h201l190 -263h-130z" />
<glyph unicode="&#xfc;" d="M135 327v526h142v-512q0 -110 49 -171t146 -61q133 0 198.5 88t65.5 241v415h142v-651q0 -42 4 -109.5t4 -92.5h-135q0 22 -1.5 69.5t-1.5 71.5h-4q-30 -68 -107 -115.5t-178 -47.5q-162 0 -243 93.5t-81 255.5zM221 1057l202 263h166l204 -263h-148l-144 186l-142 -186 h-138z" />
<glyph unicode="&#xff;" horiz-adv-x="878" d="M18 853h166l265 -669h3l254 669h155l-412 -1048q-25 -62 -45.5 -100t-53 -74t-78.5 -52.5t-108 -16.5q-78 0 -128 22l18 124q38 -14 101 -14q65 0 98.5 34t59.5 106l59 161zM160 1177q0 40 29 69.5t70 29.5q40 0 69 -29.5t29 -69.5q0 -41 -28.5 -69.5t-69.5 -28.5 t-70 28.5t-29 69.5zM522 1177q0 40 28.5 69.5t68.5 29.5q41 0 70 -29.5t29 -69.5q0 -41 -28.5 -69.5t-70.5 -28.5q-40 0 -68.5 28.5t-28.5 69.5z" />
<glyph unicode="&#x152;" horiz-adv-x="1576" d="M70 626q0 280 219 480q101 92 206 128q101 36 240 36q36 0 93 -6q101 -11 149 -11h416q51 0 51 43h43v-341h-65q0 255 -278 255h-95q-10 -61 -10 -178q0 -147 55 -217q62 -77 204 -77h79v-62l-328 -8v-510h100q277 0 328 254h67l-67 -339h-46l1 9q0 33 -39 33h-456 q-20 0 -137 -13q-110 -13 -167 -13q-313 0 -477 245q-86 127 -86 292zM218 768q0 -166 76 -311q78 -150 218 -231q136 -77 280 -77q64 0 95 9v958q-111 90 -261 90q-188 0 -300 -126q-108 -122 -108 -312z" />
<glyph unicode="&#x153;" horiz-adv-x="1500" d="M42 478q0 190 129 333q132 145 322 145q213 0 315 -185q138 185 311 185q137 0 215 -94q73 -85 79 -227h-573q-2 -40 -2 -43q0 -146 72 -256q82 -123 223 -123q149 0 312 187v-63q-212 -248 -390 -248q-177 0 -293 198q-147 -198 -357 -198q-166 0 -266 113 q-97 107 -97 276zM159 586q0 -146 90 -274q99 -141 241 -141q116 0 182 93q57 82 57 205q0 148 -86 273q-94 142 -237 142q-118 0 -186 -93q-61 -84 -61 -205zM846 679h420q-4 88 -56 152q-56 69 -143 69q-85 0 -147 -71q-56 -60 -74 -150z" />
<glyph unicode="&#x178;" horiz-adv-x="1083" d="M-16 1291h195l362 -583l374 583h184l-481 -735v-556h-153v556zM263 1502q0 40 28.5 69t69.5 29t69.5 -29t28.5 -69q0 -41 -28.5 -69.5t-69.5 -28.5t-69.5 28.5t-28.5 69.5zM623 1502q0 40 29.5 69t69.5 29t69.5 -29t29.5 -69q0 -41 -29 -69.5t-70 -28.5t-70 28.5 t-29 69.5z" />
<glyph unicode="&#x2c6;" horiz-adv-x="608" d="M54 1098l249 216l249 -216h-59l-190 112l-188 -112h-61z" />
<glyph unicode="&#x2000;" horiz-adv-x="822" />
<glyph unicode="&#x2001;" horiz-adv-x="1644" />
<glyph unicode="&#x2002;" horiz-adv-x="822" />
<glyph unicode="&#x2003;" horiz-adv-x="1644" />
<glyph unicode="&#x2004;" horiz-adv-x="548" />
<glyph unicode="&#x2005;" horiz-adv-x="411" />
<glyph unicode="&#x2006;" horiz-adv-x="274" />
<glyph unicode="&#x2007;" horiz-adv-x="274" />
<glyph unicode="&#x2008;" horiz-adv-x="205" />
<glyph unicode="&#x2009;" horiz-adv-x="328" />
<glyph unicode="&#x200a;" horiz-adv-x="91" />
<glyph unicode="&#x2010;" horiz-adv-x="607" d="M80 372v131h447v-131h-447z" />
<glyph unicode="&#x2011;" horiz-adv-x="607" d="M80 372v131h447v-131h-447z" />
<glyph unicode="&#x2012;" horiz-adv-x="607" d="M80 372v131h447v-131h-447z" />
<glyph unicode="&#x2013;" horiz-adv-x="911" d="M-11 550v54h933v-54h-933z" />
<glyph unicode="&#x2014;" horiz-adv-x="1823" d="M-11 550v54h1844v-54h-1844z" />
<glyph unicode="&#x2018;" horiz-adv-x="437" d="M111 942q0 125 96 251q86 113 209 178v-48q-81 -53 -137 -130q-68 -87 -68 -171q0 -48 28 -87q36 41 81 41q90 0 90 -89q0 -52 -42 -82q-40 -26 -93 -26q-73 0 -118 45q-46 45 -46 118z" />
<glyph unicode="&#x2019;" horiz-adv-x="437" d="M93 776v50q203 143 203 301q0 55 -29 90q-29 -44 -85 -44q-36 0 -61.5 25t-25.5 61q0 54 44 83q38 28 92 28q77 0 120.5 -44.5t43.5 -121.5q0 -126 -95 -250q-79 -102 -207 -178z" />
<glyph unicode="&#x201a;" horiz-adv-x="437" d="M106 -231q203 144 203 300q0 53 -30 89q-27 -43 -84 -43q-37 0 -62 24.5t-25 61.5q0 52 43 83q38 28 93 28q76 0 120 -44.5t44 -121.5q0 -126 -96 -249q-80 -104 -206 -178v50z" />
<glyph unicode="&#x201c;" horiz-adv-x="579" d="M62 833q0 178 181 320q0 -80 1 -83q4 -35 25 -50q-6 -3 -37 -23q-46 -45 -46 -85q73 -19 73 -99q0 -43 -29 -72q-30 -27 -67 -27q-44 0 -70 32q-31 32 -31 87zM303 833q0 179 180 320q0 -80 1 -83q4 -35 25 -50q-2 -1 -36 -23q-47 -44 -47 -85q73 -19 73 -99 q0 -44 -29 -72q-30 -27 -67 -27q-42 0 -70 32q-30 31 -30 87z" />
<glyph unicode="&#x201d;" horiz-adv-x="579" d="M69 837q10 5 37 24q46 45 46 84q-73 21 -73 100q0 42 30 72q29 27 66 27q42 0 71 -31q30 -35 30 -89q0 -179 -181 -319q0 79 -1 83q-3 36 -25 49zM310 837q7 3 36 24q46 45 46 84q-72 21 -72 100q0 43 30 72q27 27 66 27q41 0 70 -31q30 -35 30 -89q0 -180 -180 -319 q0 79 -1 83q-4 36 -25 49z" />
<glyph unicode="&#x201e;" horiz-adv-x="836" d="M69 -231q81 48 137 126q64 88 64 172q0 47 -26 91q-31 -43 -82 -43q-40 0 -65 24.5t-25 64.5q0 51 44 82q40 26 92 26q72 0 116 -45t44 -118q0 -250 -299 -432v52zM470 -233q201 142 201 305q0 45 -28 86q-30 -43 -81 -43q-37 0 -63 25.5t-26 62.5q0 51 42 83 q38 26 93 26q76 0 118.5 -45t42.5 -122q0 -129 -94 -250q-77 -100 -205 -178v50z" />
<glyph unicode="&#x2022;" horiz-adv-x="513" d="M53 684q0 86 58 145q59 59 145 59q87 0 145 -59q59 -59 59 -145t-59 -145q-60 -59 -145 -59t-144 59t-59 145z" />
<glyph unicode="&#x2026;" horiz-adv-x="1823" d="M197 195q0 43 31 74t74 31q45 0 77 -30t32 -75t-32 -76q-30 -30 -76 -30q-42 0 -75 31q-31 31 -31 75zM805 195q0 44 30 74q31 31 75 31t76 -30q32 -32 32 -75t-32 -75q-31 -31 -75 -31q-45 0 -75 30q-31 31 -31 76zM1412 195q0 43 31 74t74 31q45 0 77 -30t32 -75 q0 -43 -32 -75q-31 -31 -75 -31q-45 0 -76 30q-31 31 -31 76z" />
<glyph unicode="&#x202f;" horiz-adv-x="328" />
<glyph unicode="&#x2039;" horiz-adv-x="456" d="M61 520l346 406v-66l-203 -340l197 -338v-67z" />
<glyph unicode="&#x203a;" horiz-adv-x="456" d="M57 115v67l206 340l-198 339v68l342 -407z" />
<glyph unicode="&#x205f;" horiz-adv-x="411" />
<glyph unicode="&#x2122;" horiz-adv-x="1805" d="M117 1170v121h594v-121h-238v-631h-120v631h-236zM862 539v752h192l224 -571l224 571h185v-752h-120v631h-3l-248 -631h-82l-248 631h-3v-631h-121z" />
<glyph unicode="&#xe000;" horiz-adv-x="855" d="M0 0v855h855v-855h-855z" />
</font>
</defs>
</svg>
