<?xml version="1.0" standalone="no"?>
<!DOCTYPE svg PUBLIC "-//W3C//DTD SVG 1.1//EN" "http://www.w3.org/Graphics/SVG/1.1/DTD/svg11.dtd" >
<svg xmlns="http://www.w3.org/2000/svg">
<metadata></metadata>
<defs>
<font id="qt_zaintextbold" horiz-adv-x="1011" >
<font-face units-per-em="2048" ascent="1638" descent="-410" />
<missing-glyph horiz-adv-x="457" />
<glyph horiz-adv-x="2048" />
<glyph horiz-adv-x="2048" />
<glyph unicode="&#xd;" horiz-adv-x="2048" />
<glyph unicode="&#x9;" horiz-adv-x="430" />
<glyph unicode=" "  horiz-adv-x="457" />
<glyph unicode="&#x09;" horiz-adv-x="457" />
<glyph unicode="&#xa0;" horiz-adv-x="457" />
<glyph unicode="!" horiz-adv-x="537" d="M61 86q33 29 160 163q39 -51 183 -178q-13 -14 -60 -60.5t-67 -67.5l-33 -32q-129 129 -183 175zM92 1368l275 118l-44 -1015l-162 -104z" />
<glyph unicode="&#x22;" horiz-adv-x="914" d="M212 782v465h179v-465h-179zM523 782v465h180v-465h-180z" />
<glyph unicode="#" horiz-adv-x="1042" d="M83 368v148h178l31 215h-158v148h177l54 368h154l-52 -368h181l53 368h153l-52 -368h158v-148h-180l-30 -215h159v-148h-176l-55 -368h-153l53 368h-183l-54 -368h-153l54 368h-159zM415 516h182l30 215h-182z" />
<glyph unicode="$" horiz-adv-x="1042" d="M54 136l161 163q40 -57 106.5 -90t143.5 -40v372l-9 2q-67 18 -115 36t-100 47.5t-84 65.5t-52.5 90t-20.5 122q0 150 112 248.5t269 114.5v118h95v-116h16q93 0 186.5 -32.5t158.5 -90.5l-146 -163q-41 44 -98 69.5t-117 25.5v-352l7 -2q51 -14 85 -24t79.5 -27.5 t75 -35.5t62 -45t51 -58.5t31 -74t12.5 -93.5q0 -167 -113.5 -267.5t-289.5 -118.5v-126h-95v124q-258 -2 -411 158zM306 914q0 -20 4 -36.5t8.5 -28.5t16 -23.5l18.5 -18.5t24.5 -16t26 -13t30.5 -13t31 -13v322q-67 -11 -113 -53.5t-46 -106.5zM560 169q79 15 130 61.5 t51 120.5q0 35 -14 61.5t-43 45t-52 28.5t-63 24l-9 3v-344z" />
<glyph unicode="%" horiz-adv-x="1153" d="M74 1105q17 16 80 87.5t71 79.5q20 -16 86 -86.5t92 -101.5q-20 -25 -116 -136q-21 -26 -30 -36q-17 17 -93 98t-90 95zM91 -84l711 1340h223l-708 -1340h-226zM744 138q12 18 74.5 88t73.5 85q10 -10 87.5 -89.5t95.5 -95.5q-44 -46 -123 -137q-21 -25 -30 -36 q-123 134 -178 185z" />
<glyph unicode="&#x26;" horiz-adv-x="1305" d="M84 335q0 120 76 212t194 138q-73 80 -107.5 141.5t-34.5 145.5q0 98 50.5 169t130 104.5t176.5 33.5t174.5 -30.5t127.5 -99t50 -166.5q0 -105 -70.5 -186t-177.5 -137l201 -216l139 211h248l-250 -361l270 -294h-274l-132 143q-76 -90 -163.5 -132.5t-204.5 -42.5 q-113 0 -207.5 41t-155 126.5t-60.5 199.5zM317 347q0 -81 58.5 -135t138.5 -54q65 0 117 32.5t112 91.5l-255 278q-39 -23 -63 -40t-52 -43.5t-42 -59t-14 -70.5zM423 963q0 -72 118 -181q169 89 169 190q0 50 -40 83.5t-97 33.5q-63 0 -106.5 -35.5t-43.5 -90.5z" />
<glyph unicode="'" horiz-adv-x="521" d="M171 782v465h180v-465h-180z" />
<glyph unicode="(" horiz-adv-x="605" d="M61 412v7q0 368 361 747h49q-227 -392 -227 -759q0 -368 227 -766h-49q-361 400 -361 771z" />
<glyph unicode=")" horiz-adv-x="662" d="M152 -359q227 398 227 766q0 367 -227 759h49q361 -379 361 -747v-7q0 -374 -361 -771h-49z" />
<glyph unicode="*" horiz-adv-x="815" d="M49 939l46 140l240 -82v250h147v-250l239 77l45 -141l-240 -77l152 -206l-122 -88l-151 208l-148 -203l-118 90l152 199z" />
<glyph unicode="+" horiz-adv-x="1173" d="M109 444v180h388v387h179v-387h388v-180h-388v-387h-179v387h-388z" />
<glyph unicode="," horiz-adv-x="415" d="M86 -15q24 71 72.5 102.5t98.5 25.5q43 -4 74.5 -35.5t29.5 -77.5q-1 -77 -63 -174t-135 -173q-14 -14 -16 -6q0 7 8 20l10 15q10 16 24.5 41.5t29.5 55t25 63.5t10 61q0 20 -6 35q-7 18 -19 30q-26 33 -69.5 35t-73.5 -18z" />
<glyph unicode="-" horiz-adv-x="555" d="M60 343v180h435v-180h-435z" />
<glyph unicode="." horiz-adv-x="630" d="M32 141q15 17 93.5 89t92.5 87q11 -11 36 -33t58.5 -51.5t51.5 -45.5q34 -30 38 -34q-19 -19 -97.5 -91t-84.5 -77q-28 20 -97 77t-91 79z" />
<glyph unicode="/" horiz-adv-x="685" d="M-15 -32l549 1367l146 -56l-549 -1363z" />
<glyph unicode="0" horiz-adv-x="477" d="M60 378q44 79 133 219q42 -35 218 -167l-131 -218q-25 21 -118.5 90.5t-101.5 75.5z" />
<glyph unicode="1" horiz-adv-x="635" d="M95 946q35 50 106 187l46 89q108 -220 182 -449.5t96 -438.5q12 -112 -15.5 -224.5t-76.5 -184.5q-37 266 -127.5 541t-210.5 480z" />
<glyph unicode="2" horiz-adv-x="884" d="M71 942q67 132 133 259q78 -69 173.5 -98t201.5 -7t195 101q0 -109 -33 -195q-18 -55 -79 -91t-131.5 -43t-141.5 1q74 -264 101 -512q14 -131 -8 -246t-75 -190q-36 264 -126.5 539t-209.5 482z" />
<glyph unicode="3" horiz-adv-x="1083" d="M150 953q67 131 132 258l-1 1h1l2 -4q37 -52 82.5 -81.5t91 -32.5t88.5 32.5t70 109.5q18 -70 56 -108.5t83 -37.5q49 0 91.5 38t57.5 110q14 -126 15 -186q1 -74 -48.5 -126t-115.5 -53q-73 -2 -133 48q-23 -36 -61 -55t-85 -14q68 -258 92 -484q14 -131 -7.5 -246 t-74.5 -190q-36 265 -126.5 540t-209.5 481z" />
<glyph unicode="4" horiz-adv-x="968" d="M151 132q0 117 193 307q23 22 37 36t21 26.5t10.5 18.5t-3 14.5t-10.5 11.5t-20 13.5t-24 16.5q-6 4 -29.5 19.5t-30.5 20t-27 18.5t-27 20t-22.5 19.5t-21.5 22t-16 22t-13.5 24.5t-7 25t-3.5 29q0 47 57.5 110.5t142 120t172.5 104t156 72.5l-25 -162 q-65 -22 -134 -54.5t-106 -54.5l-36 -22q-35 -22 29 -64l225 -149q19 -12 28 -25t11 -22.5t-4 -23t-10 -19.5t-16 -19t-13 -15q-13 -15 -44.5 -50.5t-46 -52.5t-39.5 -46.5t-39 -47t-28.5 -37t-22.5 -33.5q-18 -28 -18 -50q0 -34 69 -64t174 -44.5t202 -5.5l-169 -223 q-51 -2 -94 2q-217 15 -322 73.5t-105 137.5z" />
<glyph unicode="5" horiz-adv-x="1030" d="M143 263q-3 68 1 127.5t14 134.5q11 77 48 183.5t88.5 209.5t120 174.5t131.5 71.5q76 0 155 -101t129.5 -266t44.5 -331q-13 -264 -130 -372q-80 -74 -183.5 -106t-196.5 -15.5t-147 74.5q-34 37 -53 92.5t-22 123.5zM250 405q0 -76 65.5 -115t145.5 -33 q125 10 202 74.5t77 120.5q0 24 -27 90t-65 137.5t-86.5 126.5t-85.5 55q-49 0 -103.5 -86t-88.5 -193t-34 -177z" />
<glyph unicode="6" horiz-adv-x="998" d="M94 1218q59 -39 140 -61t190 -15.5t212 51.5q34 15 34 -33v-9q5 -430 88 -715q53 -183 134 -272q33 -36 0 -85l-139 -178q-55 92 -104 256t-73.5 375.5t-2.5 385.5q-80 -26 -152.5 -38t-125 -9.5t-92 14t-59.5 29.5t-22 40z" />
<glyph unicode="7" horiz-adv-x="1012" d="M99 875l75 327q69 -59 130 -165t103.5 -231.5t68.5 -221.5t46 -193q18 93 41.5 190t62.5 228.5t94 243.5t115 173l78 -336q-183 -203 -367 -892q-17 -71 -30 -70q-10 1 -26 62q0 3 -1 5l6 -26l-30 127q-41 168 -88.5 304.5t-86 215t-80.5 138.5t-65 82t-46 39z" />
<glyph unicode="8" horiz-adv-x="1000" d="M94 259q183 204 367 892q16 69 28 70q10 0 26 -60q1 -4 2 -7l-6 27l30 -128q41 -171 84.5 -306t76 -216t74.5 -152.5t66 -102.5t64 -78l-68 -271q-70 59 -131.5 168.5t-105 238t-70.5 229t-46 196.5q-18 -95 -41.5 -191t-63 -228t-94 -244t-114.5 -173z" />
<glyph unicode="9" horiz-adv-x="949" d="M89 650q0 101 48.5 227t128 218t155.5 92q42 0 77 -31t60 -80.5t47 -125t38.5 -149.5t35.5 -170q1 -8 2 -12q25 -128 74.5 -249t109.5 -186q33 -36 0 -85l-139 -178q-45 75 -83.5 207t-85.5 353l-3 18t-3 17q-10 -8 -17 -13q-95 -67 -217 -69t-179 58q-49 49 -49 158z M206 724q-2 -36 37.5 -56t89.5 -20q68 0 114 21.5t60 47.5q-61 231 -146 231q-46 0 -99 -84.5t-56 -139.5z" />
<glyph unicode=":" horiz-adv-x="582" d="M86 583l146 151l170 -165l-148 -150zM88 121l146 150l169 -162l-148 -153z" />
<glyph unicode=";" horiz-adv-x="574" d="M81 428q0 114 65 256.5t146 243.5h55q-2 -5 -21 -43.5t-33 -70t-31.5 -76t-27.5 -87.5t-10 -78q0 -52 30 -97q34 -48 86.5 -52t91.5 28q-31 -107 -91 -154t-121 -39q-56 9 -97.5 54t-41.5 115zM94 -35q44 38 133 136q18 -23 74.5 -77t78.5 -71q-41 -43 -107 -107 q-11 -12 -26 -27q-142 136 -153 146z" />
<glyph unicode="&#x3c;" horiz-adv-x="741" d="M58 925v12q0 48 71 107q176 117 262 157q-2 -2 -15 -22.5t-17.5 -27t-17.5 -26.5t-20.5 -30.5t-21 -28.5t-24 -30t-23.5 -27t-26 -27.5t-26 -23.5l-24 -21l24 -19q43 -43 83 -117.5t60 -133.5q-47 25 -114.5 73t-115.5 92q-55 37 -55 93zM365 925v12q0 48 70 107 q134 88 262 157q-2 -3 -16.5 -25.5t-20 -31t-20.5 -31t-24 -34.5t-24.5 -32t-27.5 -33t-27 -28.5t-30 -27.5l-25 -21l25 -19q75 -76 143 -251q-98 50 -231 165q-54 49 -54 93z" />
<glyph unicode="=" horiz-adv-x="1150" d="M156 192v183h838v-183h-838zM156 612v185h838v-185h-838z" />
<glyph unicode="&#x3e;" horiz-adv-x="741" d="M47 1201q121 -63 263 -157q70 -58 70 -107v-12q0 -44 -54 -93q-48 -44 -115.5 -92t-115.5 -73q24 63 62 135t80 116l25 19l-25 21q-74 63 -182 230q-5 9 -8 13zM354 1201q109 -52 263 -157q70 -61 70 -107v-12q0 -56 -55 -93q-48 -44 -115.5 -92.5t-114.5 -72.5 q67 175 142 251l25 19l-25 21q-74 63 -182 230q-3 4 -4.5 7t-3.5 6z" />
<glyph unicode="?" horiz-adv-x="789" d="M82 845v260q239 131 428 131q107 0 173 -42q80 -51 80 -151q0 -133 -164 -278q-167 -149 -198 -265q-16 -56 -17 -124h-85q2 134 36 221q25 71 115 192q123 169 123 251q0 67 -42.5 106t-112.5 39q-124 0 -203 -112q-70 -98 -77 -228h-56zM237 190q0 43 30 73 q28 31 72 31t74.5 -30t30.5 -74q0 -41 -30 -74q-30 -30 -73 -30q-44 0 -74 30q-30 33 -30 74z" />
<glyph unicode="@" horiz-adv-x="1614" d="M88 501q0 351 231 589q236 242 583 242q272 0 437 -158q170 -161 170 -430q0 -342 -240 -540q-94 -78 -223 -78q-135 0 -135 120q0 34 21 133q-88 -109 -142 -156q-98 -88 -186 -88q-82 0 -127 60q-40 54 -40 138q0 139 83 284q77 132 194 229q105 89 202 89 q110 0 145 -121l27 98l113 17l-120 -404q-64 -218 -64 -271q0 -71 80 -71q158 0 271 207q97 178 97 350q0 249 -158 399q-157 149 -407 149q-213 0 -387 -114q-169 -113 -260 -307q-96 -204 -96 -414q0 -182 89 -345q92 -167 249 -251q159 -84 344 -84q231 0 423 132 q192 128 271 347h47q-82 -239 -287 -381q-206 -144 -455 -144q-211 0 -386 98q-182 101 -273 285q-91 179 -91 391zM557 349q0 -122 109 -122q87 0 187 115q80 93 122 195q54 131 54 225q0 133 -117 133q-132 0 -250 -212q-105 -193 -105 -334z" />
<glyph unicode="A" horiz-adv-x="1272" d="M0 0l543 1247h191l538 -1247h-254l-116 286h-541l-112 -286h-249zM437 476h387l-192 507z" />
<glyph unicode="B" horiz-adv-x="1141" d="M139 0v1247h486q74 0 140 -17.5t121.5 -53.5t88 -98.5t32.5 -144.5q0 -102 -58.5 -172.5t-157.5 -100.5v-3q118 -14 193.5 -97.5t75.5 -203.5q0 -79 -26.5 -141t-71 -102t-106.5 -66t-128 -36.5t-140 -10.5h-449zM361 190h204q274 0 274 183q0 96 -63.5 136.5 t-201.5 40.5h-213v-360zM361 740h202q108 0 165 42t57 114q0 82 -58.5 121.5t-182.5 39.5h-183v-317z" />
<glyph unicode="C" horiz-adv-x="1207" d="M72 618q0 197 84.5 348t234 232t340.5 81q265 0 437 -198l-173 -126q-115 123 -262 123q-190 0 -309.5 -128t-119.5 -318q0 -202 119 -332.5t310 -130.5q161 0 280 152l183 -131q-81 -112 -201.5 -167t-263.5 -55q-191 0 -340.5 80.5t-234 229t-84.5 340.5z" />
<glyph unicode="D" horiz-adv-x="1336" d="M139 0v1247h491q100 0 192 -24t173 -74t140.5 -122.5t94 -176t34.5 -226.5q0 -124 -40 -228.5t-106 -176t-152 -122t-178 -74t-184 -23.5h-465zM361 200h165q108 0 197.5 24t159.5 73.5t109.5 133t39.5 193.5q0 111 -34.5 193.5t-98.5 132t-147.5 73.5t-188.5 24h-202 v-847z" />
<glyph unicode="E" horiz-adv-x="1076" d="M139 0v1247h826v-200h-604v-307h572v-201h-572v-339h636v-200h-858z" />
<glyph unicode="F" d="M139 0v1247h805v-200h-583v-328h550v-201h-550v-518h-222z" />
<glyph unicode="G" horiz-adv-x="1370" d="M72 618q0 197 84.5 348t234 232t340.5 81q315 0 491 -157l-163 -166q-59 58 -145.5 90t-180.5 32q-190 0 -309.5 -128t-119.5 -318q0 -202 119 -332.5t310 -130.5q178 0 292 65v294h-255v201h477v-638q-229 -123 -516 -123q-191 0 -340.5 80.5t-234 229t-84.5 340.5z" />
<glyph unicode="H" horiz-adv-x="1305" d="M139 0v1247h222v-497h583v497h222v-1247h-222v550h-583v-550h-222z" />
<glyph unicode="I" horiz-adv-x="489" d="M134 0v1247h222v-1247h-222z" />
<glyph unicode="J" horiz-adv-x="881" d="M9 255l208 49q10 -61 50 -98t98 -37q90 0 126.5 61t36.5 180v837h222v-902q0 -102 -40.5 -186t-127.5 -137.5t-207 -53.5q-150 0 -244 71t-122 216z" />
<glyph unicode="K" horiz-adv-x="1207" d="M139 0v1247h222v-528h11l516 528h299l-583 -576l622 -671h-312l-541 613h-12v-613h-222z" />
<glyph unicode="L" horiz-adv-x="914" d="M139 0v1247h222v-1047h530v-200h-752z" />
<glyph unicode="M" horiz-adv-x="1631" d="M144 0v1247h338l333 -874l337 874h335v-1247h-212v1035h-3l-379 -1035h-155l-379 1035h-3v-1035h-212z" />
<glyph unicode="N" horiz-adv-x="1402" d="M139 0v1247h294l604 -926l4 -4h-4l4 4v926h221v-1247h-281l-616 956h-4v-956h-222z" />
<glyph unicode="O" horiz-adv-x="1467" d="M72 618q0 197 84.5 348t234 232t340.5 81h16q283 1 463 -175q185 -180 185 -479q0 -290 -185 -471t-479 -186q-191 0 -340.5 80.5t-234 229t-84.5 340.5zM304 632q0 -202 119 -332.5t310 -130.5q192 0 311 130.5t119 332.5q0 190 -119.5 318t-310.5 128 q-190 0 -309.5 -128t-119.5 -318z" />
<glyph unicode="P" horiz-adv-x="1076" d="M139 0v1247h419q76 0 141 -10.5t125 -37t102 -66.5t67 -103t25 -144q0 -91 -27.5 -158.5t-71.5 -107.5t-111 -64t-135 -32t-154 -8h-158v-516h-222zM361 706h134q33 0 56.5 1t56 4.5t55.5 10.5t47.5 20t39.5 31t25 46t10 63q0 54 -23.5 91t-65.5 54t-83.5 23.5t-93.5 6.5 h-158v-351z" />
<glyph unicode="Q" horiz-adv-x="1501" d="M72 650q0 108 34 206t95 174.5t142 132.5t180 86t205 30q132 0 252 -47t209 -129t141.5 -200t52.5 -253q0 -93 -23.5 -172t-64 -134.5t-82.5 -93.5t-92 -67v-3h356v-180h-725q-194 0 -347.5 77t-243 226t-89.5 347zM304 645q0 -192 119.5 -318.5t302.5 -126.5 q184 0 304 126.5t120 318.5q0 187 -120 310t-308 123q-180 0 -299 -123.5t-119 -309.5z" />
<glyph unicode="R" horiz-adv-x="1109" d="M139 0v1247h434q96 0 174.5 -17t146 -56t105.5 -111.5t38 -173.5q0 -136 -76 -227t-213 -111l331 -551h-267l-289 528h-162v-528h-222zM361 719h173q46 0 77.5 2t71 12t64 27.5t41.5 50.5t17 80q0 43 -16 74t-39.5 48.5t-59 27.5t-67 13t-70.5 3h-192v-338z" />
<glyph unicode="S" d="M54 138l168 161q41 -61 106.5 -95.5t140.5 -34.5q54 0 102 18t82 58t34 95q0 43 -20.5 76t-54.5 54t-78.5 37.5t-93.5 32.5t-98 34t-93.5 45t-78.5 63t-54.5 92.5t-20.5 127.5q0 75 25.5 137.5t69.5 106.5t103 74t125 44.5t137 14.5q221 0 357 -129l-162 -170 q-34 48 -92.5 73t-126.5 25q-84 0 -143.5 -40t-59.5 -120q0 -40 20 -70t54.5 -50t79 -36t93.5 -31.5t97.5 -34t93 -46.5t79 -64t54.5 -92.5t20 -127.5q0 -78 -24 -143.5t-66 -112t-99.5 -79t-124.5 -48t-141 -15.5q-268 0 -410 170z" />
<glyph unicode="T" d="M12 1047v200h986v-200h-381v-1047h-222v1047h-383z" />
<glyph unicode="U" horiz-adv-x="1272" d="M134 458v789h222v-782q0 -50 14.5 -97.5t45 -91t87.5 -70t133 -26.5t133 26.5t87.5 70t45 91t14.5 97.5v782h222v-789q0 -222 -142 -356t-360 -134t-360 134t-142 356z" />
<glyph unicode="V" horiz-adv-x="1175" d="M-5 1247h255l340 -943l351 943h239l-504 -1247h-192z" />
<glyph unicode="W" horiz-adv-x="1728" d="M0 1247h243l234 -898h4l280 898h219l274 -898h3l245 898h226l-363 -1247h-212l-288 949h-4l-288 -949h-205z" />
<glyph unicode="X" horiz-adv-x="1207" d="M0 0l444 652l-416 595h280l294 -462l291 462h270l-409 -595l453 -652h-282l-330 526l-328 -526h-267z" />
<glyph unicode="Y" horiz-adv-x="1109" d="M-25 1247h279l306 -497l310 497h264l-468 -713v-534h-222v534z" />
<glyph unicode="Z" horiz-adv-x="1076" d="M62 0v200l666 847h-656v200h932v-200l-671 -847h682v-200h-953z" />
<glyph unicode="[" horiz-adv-x="489" d="M116 -274v1563h338v-137h-158v-1290h158v-136h-338z" />
<glyph unicode="\" horiz-adv-x="685" d="M5 1279l146 56l550 -1367l-146 -52z" />
<glyph unicode="]" horiz-adv-x="489" d="M35 -138h159v645v645h-159v137h338v-1563h-338v136z" />
<glyph unicode="^" horiz-adv-x="1173" d="M121 604l393 643h145l393 -643h-208l-259 421l-256 -421h-208z" />
<glyph unicode="_" horiz-adv-x="881" d="M0 -132h881v-88h-881v88z" />
<glyph unicode="`" horiz-adv-x="458" d="M-102 1247h240l173 -254h-165z" />
<glyph unicode="a" horiz-adv-x="946" d="M64 232q0 57 19 102.5t48.5 76t75.5 52.5t90 34t101.5 19t100 8.5t96.5 1.5h53v24q0 76 -53.5 117t-140.5 41q-130 0 -225 -88l-111 111q135 136 359 136q59 0 108 -9.5t84 -24t62.5 -39t45.5 -46.5t30.5 -54.5t18.5 -55t9 -56.5t3.5 -51t0.5 -45v-486h-191v116h-5 q-88 -138 -271 -138q-126 0 -217 67.5t-91 186.5zM274 249q0 -54 45 -82.5t104 -28.5q106 0 159.5 51t53.5 142v47h-44q-318 0 -318 -129z" />
<glyph unicode="b" horiz-adv-x="1109" d="M120 0v1331h211v-593h5q103 129 288 129q179 0 293.5 -127t114.5 -317q0 -192 -113 -318.5t-304 -126.5q-92 0 -169 37.5t-122 110.5h-3v-126h-201zM324 423q0 -104 68 -179t181 -75q112 0 179.5 75t67.5 179t-67.5 178.5t-179.5 74.5q-113 0 -181 -74.5t-68 -178.5z" />
<glyph unicode="c" horiz-adv-x="849" d="M77 423q0 196 132.5 320t328.5 124q85 0 166.5 -32.5t139.5 -96.5l-147 -146q-81 84 -159 84q-113 0 -181 -74.5t-68 -178.5t68 -179t181 -75q103 0 163 80l141 -152q-58 -59 -147.5 -89t-156.5 -30q-195 0 -328 124.5t-133 320.5z" />
<glyph unicode="d" horiz-adv-x="1109" d="M77 423q0 190 115 317t294 127q184 0 287 -129h5v593h212v-1331h-201v126h-4q-44 -73 -121 -110.5t-169 -37.5q-191 0 -304.5 126t-113.5 319zM289 423q0 -104 68 -179t181 -75q111 0 179 75t68 179t-68 178.5t-179 74.5q-113 0 -181 -74.5t-68 -178.5z" />
<glyph unicode="e" d="M77 423q0 196 132.5 320t328.5 124q179 0 287 -121.5t108 -338.5v-58h-644q10 -92 73.5 -146.5t153.5 -54.5q136 0 227 114l151 -114q-138 -170 -356 -170q-195 0 -328 124.5t-133 320.5zM289 507h433q-1 92 -58.5 146.5t-156.5 54.5q-92 0 -149.5 -54t-68.5 -147z" />
<glyph unicode="f" horiz-adv-x="620" d="M22 666v179h173v120q0 95 13 161t46.5 120t97 80.5t159.5 26.5q67 0 134 -12l-15 -180q-51 12 -87 12q-43 0 -71 -13.5t-41.5 -39.5t-18.5 -54t-5 -68v-153h195v-179h-195v-666h-212v666h-173z" />
<glyph unicode="g" horiz-adv-x="1109" d="M77 423q0 192 113.5 318t304.5 126q92 0 169 -37.5t121 -110.5h4v126h201v-769q0 -236 -118.5 -367.5t-358.5 -131.5q-263 0 -419 139l126 173q132 -121 291 -121q145 0 206 74t61 209v62h-3q-45 -60 -119.5 -91.5t-156.5 -31.5q-187 0 -304.5 124.5t-117.5 308.5z M289 425q0 -102 71.5 -173.5t177.5 -71.5q115 0 183 70t68 178q0 111 -68 179.5t-182 68.5q-111 0 -180.5 -69.5t-69.5 -181.5z" />
<glyph unicode="h" d="M120 0v1331h211v-603h4q27 58 91.5 98.5t156.5 40.5q82 0 143.5 -27.5t96.5 -75t51.5 -105.5t16.5 -125v-534h-211v428q0 29 -1.5 51t-6 54t-15 54.5t-26.5 44t-43 33t-63 11.5q-98 0 -146 -61t-48 -153v-462h-211z" />
<glyph unicode="i" horiz-adv-x="458" d="M94 1133q0 51 38 88.5t95 37.5q58 0 98 -36t40 -90t-40 -91t-98 -37q-57 0 -95 38.5t-38 89.5zM123 0v845h212v-845h-212z" />
<glyph unicode="j" horiz-adv-x="458" d="M-65 -407l16 183q35 -8 66 -8q26 0 45 7t30 22.5t18 30t9.5 39.5t3 39.5t0.5 41.5v897h212v-896q0 -69 -6.5 -120.5t-25 -101t-49.5 -81t-82.5 -50.5t-122.5 -19q-65 0 -114 16zM94 1133q0 51 38 88.5t95 37.5q58 0 98 -36t40 -90t-40 -91t-98 -37q-57 0 -95 38.5 t-38 89.5z" />
<glyph unicode="k" horiz-adv-x="946" d="M120 0v1331h211v-836l326 350h271l-363 -383l386 -462h-280l-336 432h-4v-432h-211z" />
<glyph unicode="l" horiz-adv-x="458" d="M123 0v1331h212v-1331h-212z" />
<glyph unicode="m" horiz-adv-x="1533" d="M111 0v845h200v-132h5q31 67 95.5 110.5t162.5 43.5q199 0 265 -157q90 157 277 157q82 0 142.5 -28t95.5 -78.5t51.5 -114t16.5 -142.5v-504h-212v479q0 197 -156 197q-63 0 -105.5 -32.5t-59.5 -80t-17 -105.5v-458h-212v504q0 172 -144 172q-98 0 -145.5 -61 t-47.5 -153v-462h-212z" />
<glyph unicode="n" d="M120 0v845h201v-135h3q72 157 259 157q82 0 143.5 -27.5t96.5 -75t51.5 -105.5t16.5 -125v-534h-211v428q0 29 -1.5 51t-6 54t-15 54.5t-26.5 44t-43 33t-63 11.5q-98 0 -146 -61t-48 -153v-462h-211z" />
<glyph unicode="o" horiz-adv-x="1074" d="M77 423q0 196 132.5 320t328.5 124q195 0 327 -124t132 -320t-132 -320.5t-327 -124.5t-328 124.5t-133 320.5zM289 423q0 -104 68 -179t181 -75q111 0 179 75t68 179t-68 178.5t-179 74.5q-113 0 -181 -74.5t-68 -178.5z" />
<glyph unicode="p" horiz-adv-x="1109" d="M120 -402v1247h201v-126h3q45 73 122 110.5t169 37.5q191 0 304 -126t113 -318q0 -190 -114.5 -317.5t-293.5 -127.5q-186 0 -288 130h-5v-510h-211zM324 423q0 -104 68 -179t181 -75q112 0 179.5 75t67.5 179t-67.5 178.5t-179.5 74.5q-113 0 -181 -74.5t-68 -178.5z " />
<glyph unicode="q" horiz-adv-x="1109" d="M77 423q0 192 113.5 318t304.5 126q92 0 169 -37.5t121 -110.5h4v126h201v-1247h-212v510h-5q-102 -130 -287 -130q-179 0 -294 127.5t-115 317.5zM289 423q0 -104 68 -179t181 -75q111 0 179 75t68 179t-68 178.5t-179 74.5q-113 0 -181 -74.5t-68 -178.5z" />
<glyph unicode="r" horiz-adv-x="685" d="M120 0v845h211v-134h4q34 73 100.5 114.5t149.5 41.5q30 0 75 -13v-204q-62 16 -102 16q-56 0 -99.5 -18t-66.5 -43.5t-38 -57.5t-19 -54.5t-4 -40.5v-452h-211z" />
<glyph unicode="s" horiz-adv-x="782" d="M44 109l141 133q46 -51 92 -77.5t109 -26.5q52 0 96 25t44 71q0 31 -19.5 52.5t-51.5 32t-73 21t-83.5 18.5t-83.5 26t-73 41.5t-51.5 66.5t-19.5 101q0 68 29 122t77.5 86.5t107.5 49t125 16.5q92 0 172.5 -31.5t128.5 -97.5l-140 -127q-63 86 -166 86 q-48 0 -85.5 -22.5t-37.5 -66.5q0 -27 19.5 -45.5t51.5 -28t73 -19.5t84 -19t84 -28t73 -44.5t51.5 -70t19.5 -103.5q0 -72 -32 -126.5t-86 -85t-116 -45.5t-131 -15q-212 0 -329 131z" />
<glyph unicode="t" horiz-adv-x="685" d="M22 666v179h173v245h212v-245h232v-179h-232v-370q0 -68 26 -103t92 -35q77 0 114 27v-178q-61 -29 -167 -29q-83 0 -137.5 18t-85 58t-42.5 93t-12 132v387h-173z" />
<glyph unicode="u" d="M120 311v534h211v-428q0 -29 1.5 -51t6 -54t15 -54.5t26.5 -44t43 -33t63 -11.5q98 0 146 61t48 154v461h211v-845h-200v136h-4q-32 -71 -96 -114.5t-163 -43.5q-82 0 -143.5 27.5t-96.5 75t-51.5 105t-16.5 125.5z" />
<glyph unicode="v" horiz-adv-x="914" d="M5 845h231l226 -591h3l227 591h217l-333 -845h-225z" />
<glyph unicode="w" horiz-adv-x="1402" d="M5 845h229l183 -591h4l171 591h228l184 -591h3l176 591h214l-288 -845h-209l-201 578h-3l-178 -578h-219z" />
<glyph unicode="x" horiz-adv-x="946" d="M-2 0l340 454l-292 391h257l169 -253l183 253h241l-288 -391l340 -454h-257l-221 303l-221 -303h-251z" />
<glyph unicode="y" horiz-adv-x="914" d="M5 845h232l237 -586h3l212 586h220l-400 -1026q-33 -85 -70 -135t-99 -78.5t-153 -28.5q-78 0 -162 21l26 190q55 -20 107 -20q74 0 107 27t61 97l40 101z" />
<glyph unicode="z" horiz-adv-x="849" d="M60 0v195l453 478v3h-432v169h687v-191l-458 -485h479v-169h-729z" />
<glyph unicode="{" horiz-adv-x="489" d="M0 430v155q22 0 47.5 5.5t53.5 18t46.5 38.5t18.5 61v349q0 56 24.5 102.5t60.5 73.5t73 41.5t67 14.5h160v-148h-97q-35 0 -58.5 -11.5t-33.5 -32t-13.5 -38t-3.5 -41.5v-331q-1 -39 -14 -70.5t-31 -49.5t-43 -31.5t-44.5 -19t-39.5 -7.5v-3q170 -15 172 -189v-320 q0 -24 3.5 -41.5t13.5 -38t33.5 -32t58.5 -11.5h97v-148h-160q-30 0 -67 14.5t-73 41.5t-60.5 73.5t-24.5 102.5v336q0 39 -18.5 67.5t-47 42.5t-53.5 20t-47 6z" />
<glyph unicode="|" horiz-adv-x="391" d="M106 -32v1363h180v-1363h-180z" />
<glyph unicode="}" horiz-adv-x="489" d="M-62 -126h97q36 0 59.5 11.5t33.5 32t13 38t3 41.5v331q1 48 19.5 84t48 54.5t54.5 27.5t51 12v3q-171 15 -173 188v321q0 24 -3 41.5t-13 38t-33.5 32t-59.5 11.5h-97v148h161q24 0 52.5 -8.5t59.5 -27.5t56 -45.5t41 -66t16 -84.5v-336q0 -39 18.5 -67.5t46.5 -42.5 t53 -20t47 -6v-78v-77q-22 0 -47 -5.5t-53 -18t-46.5 -39t-18.5 -61.5v-348q0 -45 -16 -84.5t-41 -66t-56 -45.5t-59.5 -27.5t-52.5 -8.5h-161v148z" />
<glyph unicode="~" horiz-adv-x="1173" d="M178 526q80 152 215 152q79 0 204 -56q10 -4 38 -17t41 -18.5t34 -13.5t36.5 -11.5t28.5 -3.5q31 0 60.5 18.5t47 38.5t41.5 53q5 7 7 10l64 -148q-25 -35 -42.5 -56t-45 -46.5t-60.5 -37.5t-72 -12q-71 0 -180 59q-109 62 -202 62q-92 0 -151 -121z" />
<glyph horiz-adv-x="1376" d="M75 111v504h174q52 0 89 -7q96 -23 134 -122q20 -54 20 -120q0 -109 -48 -175q-40 -54 -106 -71q-34 -9 -82 -9h-181zM141 170h108q89 0 123 36q51 50 51 161q0 143 -89 178q-28 11 -86 11h-107v-386zM552 111v504h365v-59h-298v-154h279v-60h-279v-172h310v-59h-377z M992 111v504h68v-445h247v-59h-315z" />
<glyph unicode="&#xa1;" horiz-adv-x="559" d="M155 844q0 31 22.5 54t53.5 23q32 0 55.5 -23t23.5 -54t-23.5 -54.5t-54.5 -23.5t-54 23t-23 55zM187 -82v703l91 91v-413q0 -56 99 -229q-67 0 -190 -152z" />
<glyph unicode="&#xa2;" horiz-adv-x="994" d="M157 533q0 91 24 167t71.5 135t125.5 92t179 33h4l26 183h81l-29 -189q35 -6 92 -28l-12 -157q-62 30 -101 37l-81 -541q24 -6 52 -6q35 0 77.5 12.5t64.5 27.5l10 -157q-91 -34 -228 -34l-30 -193h-80l30 205q-138 33 -207 144t-69 269zM363 531q0 -162 98 -233l77 510 q-175 -25 -175 -277z" />
<glyph unicode="&#xa3;" horiz-adv-x="893" d="M120 1v171h114v410h-114v136h114v98q0 64 6.5 117t29 112.5t59 100t101 67.5t151.5 27q82 0 201 -32l-13 -173q-52 22 -88 31t-88 9q-51 0 -86.5 -19.5t-53.5 -57t-25 -81.5t-7 -103v-96h248v-136h-248v-410h361v-171h-662z" />
<glyph unicode="&#xa4;" horiz-adv-x="881" d="M23 329l124 124q-88 102 -88 243q0 134 88 243l-124 121l48 49l126 -122q101 88 245 88q140 0 241 -88l123 122l50 -49l-124 -121q88 -113 88 -242q0 -132 -88 -244l124 -124l-50 -48l-123 123q-115 -88 -232 -88q-69 0 -135 22q-76 23 -119 66l-126 -123zM129 693 q0 -128 91 -218q93 -91 219 -91q129 0 221 92t92 219q0 82 -44 156q-44 75 -115 114q-73 40 -153 40q-130 0 -221 -91q-90 -90 -90 -221z" />
<glyph unicode="&#xa5;" horiz-adv-x="1028" d="M30 1170v41h312v-41q-32 -2 -32 -24q0 -11 3 -15l270 -537q209 328 209 477q0 61 -42 82q-28 15 -98 17v41h411v-41q-93 -1 -206 -193l-225 -384h359v-62h-394v-124h394v-62h-394v-56q0 -132 131 -137v-41h-421v41q76 1 103 30q28 31 28 107v56h-345v62h345v124h-345v62 h315l-185 372q-44 88 -75 128q-56 75 -118 77z" />
<glyph unicode="&#xa6;" horiz-adv-x="353" d="M138 -269v638h72v-638h-72zM138 696v638h72v-638h-72z" />
<glyph unicode="&#xa7;" horiz-adv-x="734" d="M82 494q0 185 219 272q-97 64 -135 103q-62 70 -62 153q0 127 97 197q84 63 219 63q94 0 191 -38v-217h-61q-10 87 -56 143q-52 66 -135 66q-65 0 -112 -44q-46 -43 -46 -108q0 -72 66 -132q27 -24 125 -88q134 -84 180 -132q84 -87 84 -197q0 -177 -200 -270 q100 -71 135 -108q63 -67 63 -153q0 -127 -118 -210q-106 -72 -240 -72q-96 0 -205 49v235h64q1 -94 47 -158q52 -72 144 -72q78 0 137 54q60 53 60 130t-73 140q-26 23 -137 90q-117 71 -169 121q-82 82 -82 183zM181 541q0 -74 85 -147q44 -39 147 -100q154 77 154 191 q0 78 -73 145q-45 40 -141 96q-172 -43 -172 -185z" />
<glyph unicode="&#xa8;" horiz-adv-x="587" d="M52 1162q0 35 25 60.5t61 25.5q37 0 62 -24.5t25 -61.5q0 -36 -25 -61.5t-62 -25.5q-36 0 -61 25.5t-25 61.5zM365 1161q0 36 24.5 61.5t60.5 25.5q37 0 62.5 -25t25.5 -62q0 -36 -25 -61.5t-61 -25.5q-37 0 -62 25.5t-25 61.5z" />
<glyph unicode="&#xa9;" horiz-adv-x="1344" d="M62 627q0 254 177 431q180 178 431 178q253 0 431 -178t178 -431q0 -251 -178 -431q-179 -177 -431 -177q-254 0 -431 177t-177 431zM108 626q0 -234 164 -398t398 -164q233 0 397 164q165 165 165 398q0 154 -78 285q-77 135 -210 205q-134 73 -274 73q-233 0 -398 -165 q-164 -164 -164 -398zM284 621q0 80 23.5 152.5t69 132.5t122.5 95.5t175 35.5q146 0 238 -78.5t117 -212.5l-158 -25q-9 81 -59 134.5t-134 53.5q-60 0 -104.5 -26t-68 -69t-34.5 -89.5t-11 -95.5q0 -39 5.5 -76t20 -76.5t37 -69t60 -48.5t86.5 -19q85 0 135 51.5t69 138.5 l156 -27q-24 -131 -118.5 -212t-237.5 -81q-98 0 -175 35t-122.5 94t-68.5 130.5t-23 151.5z" />
<glyph unicode="&#xaa;" horiz-adv-x="550" d="M33 802q0 118 317 266v59q0 81 -67 81q-68 0 -113 -63q-37 -55 -43 -128h-39v135q131 87 247 87q101 0 101 -80v-373q0 -33 21 -33q27 0 83 50v-32q-86 -86 -141 -86q-49 0 -49 58v82q-134 -138 -211 -138q-46 0 -76 34q-30 35 -30 81zM120 838q0 -78 78 -78q82 0 125 93 q31 72 32 164q-79 -16 -149 -57q-86 -53 -86 -122z" />
<glyph unicode="&#xab;" horiz-adv-x="734" d="M60 455l293 338h74l-194 -338l194 -344h-76zM319 455l292 338h75l-194 -338l199 -344h-80z" />
<glyph unicode="&#xac;" horiz-adv-x="1174" d="M122 822v93h929v-494h-93v401h-836z" />
<glyph unicode="&#xad;" horiz-adv-x="993" d="M31 796v70h920v-70h-920z" />
<glyph unicode="&#xae;" horiz-adv-x="1348" d="M65 627q0 253 178 431t430 178q253 0 431 -178q178 -177 178 -431q0 -253 -178 -431q-177 -177 -431 -177t-430 177q-178 178 -178 431zM111 626q0 -234 164 -398t398 -164q232 0 398 164q165 165 165 398q0 152 -78 285q-79 135 -210 205q-135 73 -275 73 q-233 0 -398 -165q-164 -164 -164 -398zM408 238v795h308q120 0 187 -49q41 -32 65 -80t24 -97q0 -70 -39 -127t-105 -79q31 -69 89 -203.5t69 -159.5h-129l-146 336h-201v-336h-122zM530 674h174q45 0 74.5 7.5t53.5 31.5q37 34 37 94q0 64 -49 99q-35 22 -104 22h-186 v-254z" />
<glyph unicode="&#xaf;" horiz-adv-x="587" d="M71 1115v93h448v-93h-448z" />
<glyph unicode="&#xb0;" horiz-adv-x="660" d="M89 980q0 110 76 185q77 77 186 77t186 -77q76 -76 76 -185t-77 -186t-185 -77q-109 0 -186 77q-76 76 -76 186zM144 980q0 -88 60 -148t147 -60q86 0 146 60q61 61 61 148q0 86 -60 147q-60 60 -147 60q-86 0 -147 -61q-60 -60 -60 -146z" />
<glyph unicode="&#xb1;" horiz-adv-x="814" d="M90 40v71h628v-71h-628zM90 389v71h280v282h72v-282h276v-71h-276v-218h-72v218h-280z" />
<glyph unicode="&#xb2;" horiz-adv-x="624" d="M56 668v32q152 170 205 238q139 181 139 272q0 80 -77 80q-113 0 -161 -191h-42v151q144 75 260 75q149 0 149 -130q0 -59 -52 -123q-29 -35 -97 -97l-218 -201h269q72 0 89 77h30l-41 -206h-28q-2 23 -16 23h-409z" />
<glyph unicode="&#xb3;" horiz-adv-x="624" d="M92 682v196h42q6 -72 47 -128q48 -63 117 -63q60 0 95 39t35 102q0 166 -229 172v32q74 12 127 56q60 50 60 119q0 80 -75 80q-65 0 -107 -66q-38 -58 -41 -125h-42v151q151 77 250 77q131 0 131 -104q0 -72 -83 -127q-38 -26 -146 -69q131 0 176 -12q99 -26 99 -119 q0 -104 -97 -177q-91 -65 -197 -65q-78 0 -162 31z" />
<glyph unicode="&#xb4;" horiz-adv-x="587" d="M232 1054l110 205q21 38 49 38q21 0 37 -15t16 -36q0 -20 -30 -55l-146 -162z" />
<glyph unicode="&#xb5;" horiz-adv-x="899" d="M50 -188q0 28 18 94q21 74 27 161q3 162 7 323l1 31v478h116v-525q0 -193 144 -193q87 0 218 123v595h113v-547q0 -82 6 -111q15 -73 66 -73q60 0 82 115h37q-4 -83 -43 -137q-43 -63 -123 -63q-121 0 -138 168q-152 -164 -277 -164q-107 0 -158 105q0 -50 1 -78 q0 -84 6 -126q4 -29 16 -76q19 -67 19 -99q0 -31 -17 -56q-19 -27 -51 -27q-30 0 -50 24.5t-20 57.5z" />
<glyph unicode="&#xb6;" horiz-adv-x="771" d="M-6 887q0 102 58 187q64 90 160 115q90 22 234 22h327v-31q-81 -5 -101 -35q-15 -24 -15 -116v-1311h-50v1446h-161v-1446h-50v869q-402 -9 -402 300z" />
<glyph unicode="&#xb7;" horiz-adv-x="348" d="M73 660q0 42 29 74q31 31 73 31q43 0 74 -31q31 -28 31 -74q0 -43 -31 -73q-30 -30 -73 -30q-40 0 -73 30q-30 31 -30 73z" />
<glyph unicode="&#xb8;" horiz-adv-x="587" d="M187 -132q72 -25 110 -25q74 0 74 62q0 67 -85 67h-47v159h47v-116q8 0 18 0.5t13 0.5q150 0 150 -94q0 -57 -52 -91q-44 -31 -105 -31q-53 0 -123 21v47z" />
<glyph unicode="&#xb9;" horiz-adv-x="624" d="M144 1200v30l266 94v-25q-28 -6 -28 -44v-506q0 -59 60 -59h32v-31h-299v31h26q66 0 66 59v402q0 66 -46 66q-26 0 -77 -17z" />
<glyph unicode="&#xba;" horiz-adv-x="568" d="M28 930q0 120 80 210q84 96 202 96q112 0 175 -68q64 -69 64 -180q0 -118 -83 -210q-84 -93 -203 -93q-110 0 -172 68q-63 67 -63 177zM104 1000q0 -97 58 -177q63 -89 155 -89q76 0 117 62q37 53 37 132q0 95 -55 175q-60 89 -152 89q-77 0 -121 -59q-39 -53 -39 -133z " />
<glyph unicode="&#xbb;" horiz-adv-x="734" d="M43 111l200 344l-195 338h75l292 -338l-292 -344h-80zM307 111l194 344l-194 338h75l292 -338l-290 -344h-77z" />
<glyph unicode="&#xbc;" horiz-adv-x="1504" d="M151 1200v30l265 96v-27q-28 -6 -28 -44v-506q0 -59 60 -59h32v-31h-299v31h26q66 0 66 59v402q0 66 -46 66q-27 0 -76 -17zM312 83l798 1243h74l-796 -1243h-76zM927 283v31l196 228q70 89 166 220h45v-421h97v-58h-97v-89q0 -66 57 -66h19v-30h-284v30h26q67 0 67 66 v89h-292zM998 341h221v238q-91 -81 -221 -238z" />
<glyph unicode="&#xbd;" horiz-adv-x="1504" d="M151 1200v30l265 96v-27q-28 -6 -28 -44v-505q0 -60 60 -60h32v-31h-299v31h26q66 0 66 60v401q0 66 -46 66q-25 0 -76 -17zM312 81l798 1245h74l-796 -1245h-76zM936 105v31q160 179 205 237q140 181 140 272q0 82 -78 82q-111 0 -162 -192h-42v155q145 72 262 72 q149 0 149 -131q0 -65 -70 -144q-26 -30 -121 -113q-114 -103 -178 -164h270q75 0 89 76h30l-41 -205h-28q-1 24 -15 24h-410z" />
<glyph unicode="&#xbe;" horiz-adv-x="1504" d="M98 682v196h42q6 -72 47 -128q48 -63 117 -63q60 0 95 39t35 102q0 166 -229 172v32q74 12 127 56q60 50 60 119q0 80 -75 80q-65 0 -107 -66q-38 -58 -41 -125h-42v151q151 77 250 77q131 0 131 -104q0 -111 -229 -196q131 0 176 -12q99 -27 99 -119q0 -104 -97 -177 q-91 -65 -197 -65q-79 0 -162 31zM332 83l798 1243h74l-795 -1243h-77zM927 283v31l188 217q97 113 174 231h45v-421h98v-58h-98v-89q0 -66 57 -66h19v-30h-280v30h22q67 0 67 66v89h-292zM998 341h221v238q-98 -87 -221 -238z" />
<glyph unicode="&#xbf;" horiz-adv-x="789" d="M-9 -91q0 81 59 163q33 45 121 130q105 99 145 165q53 89 55 209h86q-1 -130 -37 -224q-35 -87 -119 -195q-122 -161 -122 -245q0 -67 42.5 -107.5t111.5 -40.5q124 0 205 112q72 97 78 229h57v-260q-235 -130 -435 -130q-102 0 -169 44q-78 51 -78 150zM313 762 q0 41 29 72q30 30 72 30q44 0 74.5 -29.5t30.5 -72.5q0 -42 -31 -73q-29 -30 -73 -30q-43 0 -73 30q-29 31 -29 73z" />
<glyph unicode="&#xc0;" horiz-adv-x="1272" d="M0 0l543 1247h191l538 -1247h-254l-116 286h-541l-112 -286h-249zM304 1585h240l175 -254h-166zM437 476h387l-192 507z" />
<glyph unicode="&#xd7;" horiz-adv-x="1142" d="M122 799h219l230 -274l231 274h219l-339 -405l331 -396h-222l-220 263l-220 -263h-222l332 396z" />
<glyph unicode="&#xe0;" horiz-adv-x="946" d="M64 232q0 57 19 102.5t48.5 76t75.5 52.5t90 34t101.5 19t100 8.5t96.5 1.5h53v24q0 76 -53.5 117t-140.5 41q-130 0 -225 -88l-111 111q135 136 359 136q59 0 108 -9.5t84 -24t62.5 -39t45.5 -46.5t30.5 -54.5t18.5 -55t9 -56.5t3.5 -51t0.5 -45v-486h-191v116h-5 q-88 -138 -271 -138q-126 0 -217 67.5t-91 186.5zM143 1247h239l174 -254h-165zM274 249q0 -54 45 -82.5t104 -28.5q106 0 159.5 51t53.5 142v47h-44q-318 0 -318 -129z" />
<glyph unicode="&#xe2;" horiz-adv-x="946" d="M64 232q0 57 19 102.5t48.5 76t75.5 52.5t90 34t101.5 19t100 8.5t96.5 1.5h53v24q0 76 -53.5 117t-140.5 41q-130 0 -225 -88l-111 111q135 136 359 136q59 0 108 -9.5t84 -24t62.5 -39t45.5 -46.5t30.5 -54.5t18.5 -55t9 -56.5t3.5 -51t0.5 -45v-486h-191v116h-5 q-88 -138 -271 -138q-126 0 -217 67.5t-91 186.5zM274 249q0 -54 45 -82.5t104 -28.5q106 0 159.5 51t53.5 142v47h-44q-318 0 -318 -129zM391 993l174 254h240l-249 -254h-165z" />
<glyph unicode="&#xe7;" horiz-adv-x="849" d="M77 423q0 196 132.5 320t328.5 124q85 0 166.5 -32.5t139.5 -96.5l-147 -146q-81 84 -159 84q-113 0 -181 -74.5t-68 -178.5t68 -179t181 -75q103 0 163 80l141 -152q-58 -59 -147.5 -89t-156.5 -30q-195 0 -328 124.5t-133 320.5zM262 -373l39 81q66 -36 144 -36 q37 0 69 18t32 56q0 31 -28.5 47.5t-61.5 16.5q-31 0 -65 -13l-48 45l109 158h103l-74 -106q37 0 62.5 -2t56.5 -10.5t49.5 -23.5t31.5 -43t13 -67q0 -60 -40.5 -100.5t-93 -55.5t-111.5 -15q-98 0 -187 50z" />
<glyph unicode="&#xe8;" d="M77 423q0 196 132.5 320t328.5 124q179 0 287 -121.5t108 -338.5v-58h-644q10 -92 73.5 -146.5t153.5 -54.5q136 0 227 114l151 -114q-138 -170 -356 -170q-195 0 -328 124.5t-133 320.5zM289 507h433q-1 92 -58.5 146.5t-156.5 54.5q-92 0 -149.5 -54t-68.5 -147z M423 993l174 254h240l-249 -254h-165z" />
<glyph unicode="&#xe9;" d="M77 423q0 196 132.5 320t328.5 124q179 0 287 -121.5t108 -338.5v-58h-644q10 -92 73.5 -146.5t153.5 -54.5q136 0 227 114l151 -114q-138 -170 -356 -170q-195 0 -328 124.5t-133 320.5zM175 1247h239l174 -254h-165zM289 507h433q-1 92 -58.5 146.5t-156.5 54.5 q-92 0 -149.5 -54t-68.5 -147z" />
<glyph unicode="&#xea;" d="M77 423q0 196 132.5 320t328.5 124q179 0 287 -121.5t108 -338.5v-58h-644q10 -92 73.5 -146.5t153.5 -54.5q136 0 227 114l151 -114q-138 -170 -356 -170q-195 0 -328 124.5t-133 320.5zM185 993l203 254h237l201 -254h-201l-121 159l-122 -159h-197zM289 507h433 q-1 92 -58.5 146.5t-156.5 54.5q-92 0 -149.5 -54t-68.5 -147z" />
<glyph unicode="&#xeb;" d="M77 423q0 196 132.5 320t328.5 124q179 0 287 -121.5t108 -338.5v-58h-644q10 -92 73.5 -146.5t153.5 -54.5q136 0 227 114l151 -114q-138 -170 -356 -170q-195 0 -328 124.5t-133 320.5zM188 1121q0 51 39 88.5t96 37.5q58 0 97.5 -36.5t39.5 -89.5q0 -55 -39.5 -91.5 t-97.5 -36.5q-57 0 -96 38.5t-39 89.5zM289 507h433q-1 92 -58.5 146.5t-156.5 54.5q-92 0 -149.5 -54t-68.5 -147zM551 1121q0 51 38.5 88.5t95.5 37.5q58 0 97.5 -36.5t39.5 -89.5q0 -55 -39 -91.5t-98 -36.5q-57 0 -95.5 38.5t-38.5 89.5z" />
<glyph unicode="&#xee;" horiz-adv-x="458" d="M-91 993l202 254h238l201 -254h-201l-122 159l-121 -159h-197zM123 0v845h212v-845h-212z" />
<glyph unicode="&#xef;" horiz-adv-x="458" d="M-88 1121q0 51 38.5 88.5t95.5 37.5q58 0 97.5 -36.5t39.5 -89.5q0 -55 -39.5 -91.5t-97.5 -36.5q-57 0 -95.5 38t-38.5 90zM123 0v845h212v-845h-212zM274 1121q0 51 39 88.5t96 37.5q58 0 97.5 -36.5t39.5 -89.5q0 -55 -39.5 -91.5t-97.5 -36.5q-57 0 -96 38.5 t-39 89.5z" />
<glyph unicode="&#xf4;" horiz-adv-x="1074" d="M77 423q0 196 132.5 320t328.5 124q195 0 327 -124t132 -320t-132 -320.5t-327 -124.5t-328 124.5t-133 320.5zM217 993l202 254h238l200 -254h-200l-121 159l-122 -159h-197zM289 423q0 -104 68 -179t181 -75q111 0 179 75t68 179t-68 178.5t-179 74.5 q-113 0 -181 -74.5t-68 -178.5z" />
<glyph unicode="&#xf7;" horiz-adv-x="1297" d="M160 352v199h972v-199h-972zM486 83l147 150l169 -165l-148 -151zM486 833l147 151l169 -165l-148 -151z" />
<glyph unicode="&#xf9;" d="M120 311v534h211v-428q0 -29 1.5 -51t6 -54t15 -54.5t26.5 -44t43 -33t63 -11.5q98 0 146 61t48 154v461h211v-845h-200v136h-4q-32 -71 -96 -114.5t-163 -43.5q-82 0 -143.5 27.5t-96.5 75t-51.5 105t-16.5 125.5zM175 1247h239l174 -254h-165z" />
<glyph unicode="&#xfb;" d="M120 311v534h211v-428q0 -29 1.5 -51t6 -54t15 -54.5t26.5 -44t43 -33t63 -11.5q98 0 146 61t48 154v461h211v-845h-200v136h-4q-32 -71 -96 -114.5t-163 -43.5q-82 0 -143.5 27.5t-96.5 75t-51.5 105t-16.5 125.5zM423 993l174 254h240l-249 -254h-165z" />
<glyph unicode="&#xfc;" d="M120 311v534h211v-428q0 -29 1.5 -51t6 -54t15 -54.5t26.5 -44t43 -33t63 -11.5q98 0 146 61t48 154v461h211v-845h-200v136h-4q-32 -71 -96 -114.5t-163 -43.5q-82 0 -143.5 27.5t-96.5 75t-51.5 105t-16.5 125.5zM185 993l203 254h237l201 -254h-201l-121 159 l-122 -159h-197z" />
<glyph unicode="&#xff;" horiz-adv-x="914" d="M5 845h232l237 -586h3l212 586h220l-400 -1026q-33 -85 -70 -135t-99 -78.5t-153 -28.5q-78 0 -162 21l26 190q55 -20 107 -20q74 0 107 27t61 97l40 101zM141 1121q0 51 38 88.5t95 37.5q59 0 98.5 -36.5t39.5 -89.5q0 -55 -39.5 -91.5t-98.5 -36.5q-56 0 -94.5 38.5 t-38.5 89.5zM504 1121q0 51 38 88.5t95 37.5q58 0 98 -36.5t40 -89.5q0 -55 -39.5 -91.5t-98.5 -36.5q-57 0 -95 38.5t-38 89.5z" />
<glyph unicode="&#x152;" horiz-adv-x="1523" d="M68 605q0 271 212 464q98 89 198 124q96 34 232 34q47 0 90 -6q89 -10 144 -10h402q49 0 49 41h42v-329h-63q0 247 -269 247h-91q-10 -61 -10 -172q0 -143 53 -210q60 -75 197 -75h76v-60l-316 -7v-494h96q268 0 317 246h65l-65 -327h-44l1 8q0 32 -38 32h-440 q-28 0 -133 -12q-107 -13 -162 -13q-303 0 -460 237q-83 120 -83 282zM211 742q0 -160 73 -300q75 -146 211 -224q134 -74 270 -74q61 0 92 8v926q-107 87 -252 87q-183 0 -290 -122q-104 -116 -104 -301z" />
<glyph unicode="&#x153;" horiz-adv-x="1449" d="M40 462q0 184 125 321q127 141 311 141q207 0 305 -179q132 179 300 179q132 0 208 -91q69 -83 77 -219h-554q-2 -40 -2 -42q0 -142 69 -247q79 -119 216 -119q143 0 302 180v-60q-205 -240 -378 -240q-171 0 -283 192q-141 -192 -345 -192q-160 0 -257 109 q-94 104 -94 267zM154 566q0 -142 87 -265q95 -136 232 -136q113 0 176 90q55 79 55 198q0 143 -82 264q-92 137 -230 137q-114 0 -180 -89q-58 -82 -58 -199zM818 656h406q-6 87 -54 147q-55 66 -139 66q-81 0 -142 -67q-54 -60 -71 -146z" />
<glyph unicode="&#x178;" horiz-adv-x="1109" d="M-25 1247h279l306 -497l310 497h264l-468 -713v-534h-222v534zM237 1459q0 51 39 88.5t96 37.5q58 0 97.5 -36t39.5 -90q0 -55 -39.5 -91.5t-97.5 -36.5q-57 0 -96 38t-39 90zM600 1459q0 51 38.5 88.5t95.5 37.5q59 0 98.5 -36t39.5 -90q0 -55 -39.5 -91.5t-98.5 -36.5 q-57 0 -95.5 38t-38.5 90z" />
<glyph unicode="&#x2c6;" horiz-adv-x="587" d="M52 1061l240 208l241 -208h-57l-184 109l-181 -109h-59z" />
<glyph unicode="&#x2000;" horiz-adv-x="792" />
<glyph unicode="&#x2001;" horiz-adv-x="1585" />
<glyph unicode="&#x2002;" horiz-adv-x="792" />
<glyph unicode="&#x2003;" horiz-adv-x="1585" />
<glyph unicode="&#x2004;" horiz-adv-x="528" />
<glyph unicode="&#x2005;" horiz-adv-x="396" />
<glyph unicode="&#x2006;" horiz-adv-x="264" />
<glyph unicode="&#x2007;" horiz-adv-x="264" />
<glyph unicode="&#x2008;" horiz-adv-x="198" />
<glyph unicode="&#x2009;" horiz-adv-x="317" />
<glyph unicode="&#x200a;" horiz-adv-x="88" />
<glyph unicode="&#x2010;" horiz-adv-x="555" d="M60 343v180h435v-180h-435z" />
<glyph unicode="&#x2011;" horiz-adv-x="555" d="M60 343v180h435v-180h-435z" />
<glyph unicode="&#x2012;" horiz-adv-x="555" d="M60 343v180h435v-180h-435z" />
<glyph unicode="&#x2013;" horiz-adv-x="881" d="M-10 531v53h901v-53h-901z" />
<glyph unicode="&#x2014;" horiz-adv-x="1761" d="M-10 531v53h1782v-53h-1782z" />
<glyph unicode="&#x2018;" horiz-adv-x="422" d="M108 910q0 123 92 243q84 109 202 172v-47q-78 -50 -133 -125q-65 -84 -65 -166q0 -47 27 -84q34 40 78 40q87 0 87 -86q0 -51 -41 -79q-37 -25 -89 -25q-71 0 -115 43q-43 44 -43 114z" />
<glyph unicode="&#x2019;" horiz-adv-x="422" d="M90 750v48q196 139 196 291q0 53 -28 87q-28 -43 -82 -43q-35 0 -59.5 24.5t-24.5 59.5q0 50 42 80q38 27 90 27q74 0 116 -43t42 -117q0 -123 -92 -242q-78 -101 -200 -172z" />
<glyph unicode="&#x201a;" horiz-adv-x="422" d="M102 -224q196 139 196 290q0 54 -28 86q-27 -41 -82 -41q-35 0 -59.5 24t-24.5 59q0 52 42 80q39 28 90 28q74 0 116 -43t42 -118q0 -122 -93 -241q-74 -97 -199 -172v48z" />
<glyph unicode="&#x201c;" horiz-adv-x="559" d="M60 805q0 172 175 309q0 -77 1 -80q3 -34 24 -48q-2 -1 -36 -23q-44 -43 -44 -81q70 -19 70 -97q0 -42 -28 -69q-27 -26 -65 -26q-40 0 -68 31q-29 32 -29 84zM292 805q0 172 175 309q0 -77 1 -80q3 -34 24 -48q-6 -3 -35 -23q-45 -43 -45 -81q70 -19 70 -97 q0 -42 -28 -69q-27 -26 -64 -26q-41 0 -68 31q-30 31 -30 84z" />
<glyph unicode="&#x201d;" horiz-adv-x="559" d="M67 809q13 7 35 23q45 44 45 81q-70 19 -70 97q0 41 29 69q26 26 63 26q41 0 68 -30q30 -31 30 -85q0 -173 -175 -309q0 77 -1 80q-3 35 -24 48zM299 809q12 6 36 23q44 43 44 81q-70 19 -70 97q0 41 29 69q26 26 64 26q41 0 68 -30q29 -32 29 -85q0 -173 -175 -309 q0 77 -1 80q-3 35 -24 48z" />
<glyph unicode="&#x201e;" horiz-adv-x="808" d="M67 -224q77 46 133 123q61 84 61 166q0 45 -25 87q-30 -41 -79 -41q-38 0 -62.5 24t-24.5 62q0 50 42 79q39 25 89 25q70 0 112.5 -43.5t42.5 -113.5q0 -242 -289 -417v49zM454 -225q194 137 194 295q0 44 -26 82q-30 -41 -78 -41q-37 0 -62 24.5t-25 60.5q0 51 41 80 q38 25 89 25q74 0 115 -43t41 -118q0 -125 -91 -241q-74 -97 -198 -172v48z" />
<glyph unicode="&#x2022;" horiz-adv-x="495" d="M51 660q0 82 57 141q57 57 140 57t140 -57t57 -141q0 -81 -58 -139q-57 -57 -139 -57q-83 0 -140 57q-57 59 -57 139z" />
<glyph unicode="&#x2026;" horiz-adv-x="1761" d="M190 188q0 42 30 72t72 30q44 0 74.5 -29t30.5 -73q0 -43 -31 -73q-28 -29 -73 -29q-41 0 -73 30q-30 30 -30 72zM777 188q0 42 30 72q29 30 72 30q42 0 74 -29q31 -30 31 -73q0 -42 -31 -72q-30 -30 -72 -30q-45 0 -73 29q-31 31 -31 73zM1364 188q0 42 30 72t71 30 q45 0 75.5 -29t30.5 -73q0 -42 -31 -72q-30 -30 -72 -30q-44 0 -74 29q-30 30 -30 73z" />
<glyph unicode="&#x202f;" horiz-adv-x="317" />
<glyph unicode="&#x2039;" horiz-adv-x="440" d="M58 502l335 393v-64l-196 -329l191 -327v-64z" />
<glyph unicode="&#x203a;" horiz-adv-x="440" d="M55 111v64l199 329l-191 328v66l330 -394z" />
<glyph unicode="&#x205f;" horiz-adv-x="396" />
<glyph unicode="&#x2122;" horiz-adv-x="1505" d="M98 1123v87h550v-87h-231v-557h-99v557h-220zM753 566v644h135l189 -484q67 182 183 484h132v-644h-98v515q-38 -99 -105.5 -281.5t-86.5 -233.5h-67l-196 515v-515h-86z" />
<glyph unicode="&#xe000;" horiz-adv-x="845" d="M0 0v845h845v-845h-845z" />
</font>
</defs>
</svg>
